<mxfile host="Electron" agent="Mozilla/5.0 (Windows NT 10.0; Win64; x64) AppleWebKit/537.36 (KHTML, like Gecko) draw.io/26.0.16 Chrome/132.0.6834.196 Electron/34.2.0 Safari/537.36" version="26.0.16">
  <diagram id="vhmoaQj21hGfgMcmqNgk" name="페이지-1">
    <mxGraphModel dx="744" dy="1663" grid="1" gridSize="10" guides="1" tooltips="1" connect="1" arrows="1" fold="1" page="1" pageScale="1" pageWidth="827" pageHeight="1169" math="0" shadow="0">
      <root>
        <mxCell id="0" />
        <mxCell id="1" parent="0" />
        <mxCell id="cYbpTIdxBDw8iZ4d2G3q-31" value="" style="rounded=0;whiteSpace=wrap;html=1;strokeColor=none;movable=1;resizable=1;rotatable=1;deletable=1;editable=1;locked=0;connectable=1;" vertex="1" parent="1">
          <mxGeometry x="60" y="-50" width="530" height="270" as="geometry" />
        </mxCell>
        <mxCell id="cYbpTIdxBDw8iZ4d2G3q-157" value="" style="shape=image;verticalLabelPosition=bottom;labelBackgroundColor=default;verticalAlign=top;aspect=fixed;imageAspect=0;image=data:image/png,iVBORw0KGgoAAAANSUhEUgAABAAAAAIeCAAAAAAAeiKOAAAwwElEQVR42u3dd3gcxf0/8M/MXtGderUsWZJlW3KvVNs0F0wHQygJ1YYfX8D0kFADJEAoMRBCDS2EEkjoHYNNMxjjImzjLluSZVWrd13dz+8PybZ0u3e6O519J+v9evKExyfd6m53570zszOzggkABiuJXQCAAAAABAAAIAAAAAEAAAgAAEAAAAACAAAQAACAAAAABAAAIAAAAAEAAAgAAEAAAAACAAAQAACAAAAABAAAIAAAAAEAAAgAAEAAAAACAAAQAACAAAAABAAAIAAAAAEAAAgAAEAAAAACAAAQAACAAAAABAAAIAAAAAEAgAAAAAQAACAAAAABAAAIAABAAAAAAgAAEAAAgAAAAAQAACAAAAABAAAIAABAAAAAAgAAEAAAgAAAAAQAACAAAAABAAAIAABAAAAAAgAAEAAAgAAAAAQAACAAAAABAAAIAABAAAAAAgAAEAAAgAAAAAQAACAAAAABAAAIAAAEAAAgAAAAAQAACAAAQAAAAAIAABAAAIAAAAAEAAAgAAAAAQAACAAAQAAAAAIAABAAAIAAAAAEAAAgAAAAAQAACAAAQAAAAAIAABAAAIAAAAAEAAAgAAAAAQAACAAAQAAAAAIAABAAAIAAAAAEAAAgAAAAAQAACAAAQAAAIAAAAAEAAAgAAEAAAAACAAAQAACAAAAABAAAIAAAAAEAAAgAAEAAAAACAAAQAACAAAAABAAAIAAAAAEAAAgAAEAAAAACAAAQAACAAAAABAAAIAAAAAEAAAgAAEAAAAACAAAQAACAAAAABAAAIAAAAAEAAAgAAEAAAAACAAABAAAIAABAAAAAAgAAEAAAgAAAAAQAACAAAAABAAAIAABAAAAAAgAAEAAAgAAAAAQAACAAAAABAAAIAABAAAAAAgAAEAAAgAAAAAQAACAAAAABAAAIAABAAAAAAgAAEAAAgAAAAAQAACAAAAABAAD6DKHcWOfzVYNkt2Vfg+SEQ4HgEG6seU7BINltx36HAAA0AQZtgwLFH3AmAwACAAAQAACAAAAABAAAIAAAAAEAAAgAAEAAAAACAAAQAACAAAAABAAAIAAAAAEAAAgAAEAAAAACAAAQAACAAAAABAAAIAAAAAEAAAgAAEAAAAACAAAQAACAAAAABAAAAgAAEAAAgAAAAAQAACAAAAABAAAIAABAAAAAAgAAEAAAMEAZDv2vKASxIBZEKo43wCCsAUhJkohxuAEGXQAwM2WdMkJB+QcYjDUAIaIXPHl1rBA43ACDLgAEUdzM3OlxKP8Ag7IGQAlpnBrHaAMADMY+ABqSQPFZCACAwdkEGJ5A1nESbQCAQVgDIEOWmcx5jAAAGHABIIRBCNmvDcSNkSQyYnC0AQZeDUCwlCwp6Lt4rMblSaacNPQBAAy8GgCrTELtz1387HQmShuKow0w4AKApTCQ2p9PysOtTMIyXMHhBuhtAEwGYkHj59QsrQv+O+ZHSVbNow0uHG+AARYALHnUozPbXnjAHuwWYvINLFVDfrSNBAv0BAAMoCaAZDpimilpXkrQW0geKZmJ8oYSCYnyDzCQAkBI8wSr4PRhwfYCilHZqiBBWROlwIoAAAMrAJjMuWYhU7KDDQDLqTFExBR7fDRLJADAgAoAImuaII4KqgYgBNGIYyQJIlKOHyEwGhBgYAWA6kpMJiFFljGYAFAMUXNGklCFFHL4GQaJRQEABlgNIC2RmGiYNZj2g1vNPCOahCAhhOnkDIGbAAADLAAy44iJMmODCQBpOusw0dUEIDFpvgUVAICBFQAi20xElB7MfUApZ123fykg642noAkAMKACQJiGEQtia0qAZVcIIQwz7swWRKKrCkDDfj9DISGEIEISAAyIGoB1pBCCyJKpBDQrWAopLGc8ehSzkN1vVMW0x06NFkIIIfBIFIABMRQ4fphgwcKab3STn/fxBRORMI87+9Kh5N5/rRcsJz/57v8224kFnhICMBACQAxLJMFEhuHWTvbvsi0EkRKXd/qp+VGq7NHvz0LljGtmf7FsXRu70QQAGAABYJiYKJgE8+ih9X5etmVMYtbEmUdnmFjt1dgXLASZJ4279Jsfd5Q0dGJyICAAIv4TmscaSRAJysrZJLw/3kuQYCZpNMYMzxo1OS8t1UREQvYa+te9IIAp85LzGyuKCreWlDc5XSorpAosGQwIgIgUP1ywIEEUledjKp8QLJIyk5Nzh2dMSDEYFUFdzQXRKyP2NgXInJ422eWoLdy9q6KytrZeqBggBAiAiJSRJ1QSRGSeEmXzUUzF0NvmJJosZmapMvcu+p5YMAmTOXYEO+ydzetuq1DRIwAIgEgk8lK679jJ0YmV3hsAxMPn5pMglYRKimCfAUC8d2iA2Ryfbk4rx5ODAQEQicWfjfkWVbBCRCJ1aKW3csoGN219et6Q5LQooUgm7ooC8mwFdD0jnEkwSWJi1V63Z89PRUKqSABAAEQcqVonmtXum3+pI9eRt4LqIqp/8a3o5LEjskdlxMdaiYmFm/TWAVVZCCLqaGuu2Llr146qjnY7zgNAAEQiVQwbL4mJBRFHT/vY7utC7WpsKt9AxtikIaPGj5uQaDKoggRx7zUAVCIie/3WzVuKyhta7Wj7AwIgglsANCa7e2AfER0Ra+ujYc8kXI31O1eZEvOOmT0+QXYlR69bAczt279btqPW6XYTSWbCDQBAAEQmFsZZJqF2D+UX+RO+7ev3mSULcrnay3/69+GnnThMU7q5+fv//lJuF0QsBFHXHQMABEAk1gBk1gmCZVdHnnClnryqncjrJZuJiYS7+1/OsrIvD7tldoy6bwoRu4l5zfOfNglVMAsmFsJNAncAAAEQoZTDM8T+/gB5VOaOvsor92jsd6yoWnRpfI8mgErf37vOJQRx9+0AJhR/GMwie1KsIW5ebPf8fSIhaew04kBm8XHJw8917i/hUnz/x1VOVPoBBkQACD7s2B7/IpEwP4ECGbbPXPf4K879Q4DX/GkTqSoeDgIwIGoA0Rfk9LjxL0geMyXQ54S3vLhe5S7U+vwGJtG/Jw0DIAAORutfSrM8cp6hZ2EVMuPyVBnIukDMXPjvRlVVVZeL1RVLHEQqM4b9AUR4AKgkOHFhes/Z/EIIMfckJaD79syOT1YTE5Pgto/rBWMhIICB0QQwzJ0l2KOXPuWSPA7oM7Os/9ImWEiiXStYxVKAAAMhAIQQc+9KJtUjAOSM25LdgWxGsvPrSpJCCMdnJVLBXT+AARAAQtBRd+ZLIT2v98Zzfp8aUBOAqGwdq8zcsKKTGbcAASI8AIQipZTj7p2qSBIe8/kEWa5YlEzCIAVJ2WdvPhMzt220SyJZXsRu9AAARHwASEUxn/7c8Wr3Cv49qYITbn5wlMJSCj8v50L9tZ0E0bZqHG6AgdAEEBm3Pztdt7NPEMnoBS+dFu1/XZ7Fthoi6dzaicMN0FskzgXgxJm/PTmGWRF6dXoSqpiZ8fY7hTY/7wcK0bBlrKDOHVgGHCBCA2B/YTYNPfZ3RyUIFgb9GoAghWnUred+8+66FjdR39P5BTcWnGmitlKM/wOIuAAQLEgwC8lM0pycd/y8sbEsSZCit66n6P4/Y/6os3749peiNqeQzCyYhPDSw6cKLm5L4spa3AAAiLQAEF3LeBCrZMwdOf2wvHSLVImFl1V9ewwMTD/nxNKNq9btqGchBDELL3UBQWJ3U7JaVYcAAIi4GgBLZsUanTIif/xRQ6IVwUzScyE/vbcxyYT4Sec2b9m0eWt1c5uNvHULsqA9NSPVUhvW/gKIsABQzOaoEaOyRuRmpEQbBLkFSyJmf2bsCiJSzWlps2yNdRU7S8q31NjsLt33cfvu6R0bUfwBIiUABLExOi4hLnN0fkZGapRRkcRE1NXx7890XSFo77P/LJaMCXOcHWW1xb+W1zS3NXcQ91zoSwiyV6i2XRgFDBAxAWCYeNmIlOR4i0nh7in+omcTX/SdID3/oyjmmFRih721qbHqx7f39FrpS7C9wtFYieV/ASIlAHjIPfOkQTARSw7Z/TmjOXaIVGfJp3rO+GdVquWOqlaUf4CI6QNIHU+C3EKoflzt/Q0VEuxmleInyd53BJl3rC5ox/K/ABETAFUFQw2kMJEk3ntt3vffgEr9vjcKIlLIzdVr3R69Bbz5io4m1AAAIqYPoP7+DSPSchJjrV038ZmlEMzEFECLoOtBn0yi6z9M9o7mqtqyn7/i3td/ImcZDjVABPUBuLYUm6JiUsZNSM9Mj7dESaW7LItArv9q1wVeMLtsbXV7you27myy2RxOHFeAyG4CsLDbm/cUrSZjQtLQzJwRo7KTohRBpIrAmgCSne1VZcU7dlfUtjSpLJlYYtY/QITXAJTuGrxw1NZsk4oxMXfkkZMzEq1KV4VedP3Pa81fdNX8nR01O9et31nZaWeVhEJCkIq2PkDE1wDcoqvzj4mJVLejvfyn9xNHTpw2dXhM12tMXjsDutr+Qm0sLFi/paS5k7qmFLFLkNvH2wAgUgKAej6Wj4mI3C0tu7+LTj9y/tRMk+pWJKvelvxySyLVVv31xxvrbN0b4e5U2Lc1AIjkANAQTCw7Sko/G3f6qaNM5HV2H5Ek6liz7JstHcQC7X2AQyIAmIjcCjubV/76wW8uHMbe1ytjLn/9jXJH100AXO8BDoUAICISqhAsOwo2fXn9rNjuKYFC0/zv+PDF1U4iA3c98QdHEeDQCAAmJnILtn1ftOCGRFVRhdp7XXBWJTW8/Hg9E5MTLX6AQyoA9sUAVzzp+GMceTYDWHWLmqdebETbH+CQDQAiImp/Wr05TXsbwNjyyCttxKS4cfAA+itynw1Ijpeea2HPKr7sfPuNTiG6RgEDwCEaAG63u/mFpdSjD5CZmdQVTzSyqqLpD3BIBwCrbnf1U7vcbu71UsVzOwQzcyAVAKlIIRQpMEIQYKAEABERrXmtrffMPrlsOQe6gIgkEpahJon7hQADKwBs/11n3t8EIJZVbzYzB/iIL5VVOe+56UwKDjfAQAoAufv9/U/0FCScn66mgCf7CEUYph03zcDoNwQYUAHA9uUVxKzufeZHw9ftbg60Js/MpiHmdKPE0QYYUAEgROESlbirzDPztvXcPe8vMJYhxmFmQicgwMAKAHZ8XM/dRV4Ix/LyYLaicnyWyIxFAAAMsCaAoM3r97f5a7+2BZcjw1JlZjLKP8AACwApmlfb9z0rbOu2IO/k5SdS4mg3bgMCDKwAcLF9Xeveuru6sjm47xh3mJmt07FWKMDACgAi5sLyvcOB27e4g6rGq6nTBCsTU3AbAGCABQBRWUH3wF+u2xFcJV5MypYs8sagEwBgwAVA50Zn9+qAZVVqUD35ltPihOTUOVE43AADLQCcP+9hImZ2F7cG+HzPrr5DMfY4hYnliaNwuAEGWgBQRZ0gJibHBltAxV9KIRRplkNvGOZSWdCkRWmKVKQiMSAAoJsh8j9i06apRCy4YwsHMqFPSpVIlZx/41kKCRJu428diytZsMRyYhBCdY8Xa0rV5bMRAKHCtmJVCmIurRQBLQGsSlWVsUdfP9NMglWDENGXpTxf0MZdzxUDCI2OpWs9XzKdgAAIYQIUd0azILm1mkn6X3KZjMlDph87I1UIQarikiSsvznqp6WbqmqxnCDAQAkAIUoaY5jJWdop/J0JaLSak/LH5E/MTDKTKgQJIQxErCo5w89qKl1funlbm73dFRnfz+Xo7GhvbG5va+j+cpYUmWBJjI6KMmMCIyAAmGsahxFRZ4nT34mAhtNOzklPTTBKScSSRHdfpyCWbI3OONzZUF1b9t73znB/M1Lby4t2VpWWVLhdqntvvUQYySAMaVmZ6UljclLjBJYyg0HdBKDGPZOYRccut78PAlNmnBmnGASTW7KgfeuKMkmVWAijKSpFbd39U3gDQG3ZtXnlqvr6Fv0fV64noqTEmKlH5o9Ki0IGwKBtAnDHjhMMQrQ2sL9rAbueWJqRkZ2ZMyTWpErafwWVLFh1tFeXlZZVl27uDOOXcjcWfvXjr7V9/VpDA234tzk//5j5OYgAGKRNAGHbZoshrmnw/+JaUyOM5tiUnMnTpyVI4r01B2ZuWbVqQ2lDi80V+MpCIWzUVP34wQ8N/k5ttm/cuMR0FRY0hMHaBOAyWwxxeYv/b3AJdnY07v7l4+Qp808ZJkgwMROL3UvfL2hSw3wP0Fn8v3d2tQX0lvYOnKkwWAOARWV9KstdgRSC7jKuNn694oNr50axKlmwe9Vf1rSHufSzq/DVjwpx3gECwH+VpWNY7Ani7j2zsH3fYD1BSpKkbrj/J1WEeRhg4+fPrLPjtAMEgN8EtZSRaNsdVMll1b3hvuEjVIWocvFyd5inATh/fmR5K046iBxyAJR/clapXF8STOXd7ZaCCz7slEzq59+5iMP5cACufOqCz1D+AQEQIHWPQ22qD+ajMrnZ3bmkWZDasaKZVQ5nD2DxXQ9U4YwDBECgXGuLGn+oD7oKITb9zESla8I7BcC58tLXG3HCAfoAAryIC6L1/5ewvjPYazdT41cnWmj9rrDeAHC8/dAWnG6AAAiiD4CcPwuSQV/ApXtnU0z7Wmc4Hw+sLvlzMc42QAAEkQAqi6AeCLY/AUp3D2teHc7vYP/y5r7KvzlWsUhSO9jdhAVLAAGwrwbfPQUg+BY8uxtLZuypC2f7/52/+Cj/hpiEyaOGZKSbEg3kalAduzvrm6u21Ng7HDg/ATWAELQhOsrce9rC9wl41YNFXn8YNeHI48YOtZp7HAnV6bS31hWvLSzeYcMpCgiA/hU/IndZZ2VH2MYActEft3oLpyGnnHXEEM+JPtJsjkkefvh5tprtBZ8U16JFAAiAflHLWkvDN/t/z+I13or/Gb872vtcf2HJyZ5z9YblH21vx4kKCIBgKapaW1+59/EiB53rnff0+y/ktD/Mi/c9EEMoicdP/92nn1pwpgICIMg+AJbq9vs2hq0B8Mtj+mOYki6+Ns+PqQnCnHfjpXasDggIgGD7AAS1fxS2McDtj5fqvj70rkti/ZyaJJMD+fCqSkQkQ7aUoKoSkQhqQZKuJ7IL2c+P0jWDI+jNcFcFTGJxxcHaB6AKtxAUnocBqN8v1X09586LLf6fkH7+pqu5vrqupZ2IKM46JDUpsZ+Hl501daXNbUxkTEkdmhbjfz3E1dLcUNvaYiMiMsWZ02MSEyzB1WLaa2srmtuIyBqdmZYSH9hGOltaGmvbm5xERLHW5JTEhJj+HlBbS2dHZ5wpJl5BAAywikBY1Lysu5RZ9uKzTKH9erbK4nU/VLXU7x1GJJMS4tKPnDImI8Zreqg1FZrXrPl7T2xX/eYVP1Y27enqPZWJySnj5xye2fcTVl2NpcUb1te2tjTtW8JFSbbGxiZPmpCekxzdu9y4i7TTIxOH7y3l9oqty9Y0NNV2r+CekpgwfsaU/Dg/4pA7mmtKi7ZubW9vbdp3KzU+ITZ2wtSJeUlGH5++tEnzWlxe90btZb/+tLrdbrNHG63T7h0ayPFxFOkuaGMcZUUAHPiiz2F7FBAv+07v5ehbzwhl+Wd3TcFnK4odPR91oNbVEX1lzD7ypBmZRv0i43rjHs1rk5dFd137d362pKDHsxPU+vrCn18dPeuiySZf5c/VtH75mjWt7t7dnu4aIqLPFZk/ZtTCkT3f33Hdj5pt/OYFCxERt2393zeF9h5bqqujgv8kHX/KrEzF12dw2+q3bV5XUtjsVnt3/DQ3E61SYqYeddpEr5WZljs+1bx2wudd1Yltry0tduz9PA03BRIA6tKr9XqCjKc/bg136QihpiMGS3XieLe/u+QMvVPVcFmTGsL97q7413Gp3s5okXjkk8X6H9f+kPbXp7YxM6tVT0/RPTOVMY+Ve/8gatl/zkr3nWyGd3p9lpbjtL9yfjszs3vzDSP1L0/xM/7X4P0z2La8esPkdJ+3TUzDr/isw8vb68/U/v5sZma19m+je36eEVu631F6uPYPvOi5Y3bP0e3cmVEQyvMgGAiAAxoA6re6bc7ZO0K419XqZ480+i50k5+sVQMJAPsX87wWY+PcNS4vOVT9wmF9X8/e8i8Aap4Z630bsWd/79T/DJWvXjjCn1pt4oINjoACwL3xN+ZeLwYUALXX6R6hySvcjAA4lAPAdbveu5PfdYVup3csPzu6z89r/e1qh98BoDa9kOmjii0OX6ZXdlTHt2f608PmVwC4dy6I9bURmf9am+618/4oP3sJ5ZR/tQUQAO41sz02HEgA2P+eoPcZsr5whrv8M+4vH1BNX+u9esLckPUgc9PTCz/qe6BgxzvXf+b3sxDbnr2nwkefCRfcu06vw/3DRZ+Ear6FuuOW//hcO00tvPNF3T/WaPNzvIe6/g/P+T/Rgnff/n3wA0l47ZNNOi+n3j47/F1wCIAD2sFSoDcJMP7/xVLISsp1dxf5c2a6V131gp/Fs/Vvj1T7/lYr7yzTBETLk9dtDVVPK69Z9ElfI7fL7328nxOlGv7yZLO/v9vy1+/6MRu16k8leq2Q2y8zEQLgkOZcq9f1O+3IUI1Ica++5r/+LjJec++rfpWYztee6qtcqN++7FkcHK88WhOy2Cy504/Lbcsz7/VzffW2v73q5xacH7zbj/Xkmp/6Ua9j5sqFVkIAHNrat+m8aJmbGKIAUFddH8CFqW7xEj8u0erSx/q+LqpvbOy9Kffyx+pDttda/vaDP9+q9v6f+lnlqP/HWv9+seSlpn6k9Huv6FRnlDNuSoiEkYlhb4REwPjMAzdKoO5nnReT5oaq/P9689pAfr/0TzmT+wz8svtK/CkR/8nr1eFX/Oey0O21H53+zdwsvH9ETv/+UvH9byX6U4RfX9uPs6vgoT065f/0R4YSDeYAEEQsYibmmsNfB2Fn7eZKIqaQzxco1VsG+LDhIfrYRX/SOy9FlFESqy6b9sts+cfi1D5bxn6tXKx+cemkng2Ad37R/TWjUSEiUt0uVwBfzN/Jz/zTW3/o4/wVRqVrzJDbpbu80ool5/lRAio/Db6xwbUP6/UDzfjzSBrUASCZSI74vzNTlQioAai29U9/fSBmC+3SO3HGaroAucGfR5XHxPfeVW2Pf61tKcucaXNHJ0l7Q9G364o9f8yfzFzY5wH3bzeUregZAFUf6nwBJSdv2pg0A5HaWFNcuKeiJuTzMe2vzx/t4/SJyU5Jm5iZGEdE7tpdq7aWaD9A25vHZ/hR3+nHOdrx2pc6e3T43RPl4A4AlioNf/gMSSL8O0Ll2JNG37jkAKwYtEWn203J0gyndzzzvh8bW7CoV6ex693XtVtPWHB5Xvfmryh64yXPfrmGZ4/P9/O8SB4yJiO+etfO+mbdRGj78pIebYCCjdrfGPd/c0buH4/nrC/fseqbisZAUlamJIzOHNLetLm2pU7/2Gz7761eOtKiM444enxuSvS+s4vtxV+9tEXz51d8/7u+P4gr+DPA/cETOnMAsh6eHSlTicIVAEKV8pTZUlAkdIQI5uwrN5aFfLvO3TqN2STtRYsrNvixtapeZy8XPqWpKotxN5+/b+qPacydo+/zXIpwywe3+rPDZe7ZJ06IU6TbWbXm/a/17shzYU2PAFilLSKTnpxh6PGnjOlDps2vXvf51xV+n5mjT5o7LskgWbXX7fz0izK9Uqi+f/44vZZHypwZx+VE9apciqixo2b+6VvPA9L85TnmA3md27ZY5wsn3X5GxEwlDFsNQHDscfFq13M/wkyyIHH05PKQNwIcejV7a0pItt3+L+1VN+/R2T0qCSL6fMP1HlMRHR9dntr3tqPm3TG5e6Wy+PyT3npMLxp3lubuO3KuDZrSmXDjMR7nuBCW3NwTt33i59dPO/fKMeauv2BNzDvu4lff0OsaKP56jKYGaZowb/6YWG3FUpgOX3yt5w05dd2ebP93emxuglUQOdqrKvyrFbQs3qR90XzjJVYa9AHAIjmna5WJ8CeAICbLMA55J4Bd75yNSgzJtn95R3MKpjw6r/dpH3XOqmc8bqitX3Fmn22u2EU3D9mfjmnXZNyikwDOncfvO3DtLZofxx+me42LPWKa26/jnf/IvJ6FJHr6pNEP6Myrbv/mkgSPvzBu4WlDvVxfxfg/bq/1bEXszPLzBDSMPOWUsYlWSWRvq9q0cocfF/GOF97Wtl0sl1wfQ4M+AIhIUSJnhZYD80mcen2ASkiGfznf0zxnNOaauZ5lO+r8tz0G9XX+fFJf6wvKy27pdZU2nbH9Xp0meI91jmzazghXi5eqneJX5TfnwdM9zszoKzv+ps0ZWrNrSq9/595/erbB69FUjp3iuTyLY/ss//Z43AXXjepewsVsTh53Vk1S31e5b57V1gHFabcmRNDSRDJsJY4Jgrd7qaZ74ZjLtUV7/EzPV75q6OvIHPOHlN4nqPmSiTq/V7T/ALq0+VD3aX+G6aXdc6bmyhRz5Rk6v1njUcW+eNFIo4/iFaudlbvNv4807M+PTLLu37K05PQ5nptLHtJZDW7Gn0dE0tJk4QoAJpJYoi1o7h8LNVeoK7N0LltHe95y2LOzj02n/j7H48CIrHN11gHaub9xEaNNHvsrLzYHHfHK/ztPZ/ZsytXpOjvCYyhEgu+J0coYzUv+rRY75JFrAm66tTysHaooJj0xLqLO+zDehGMEQNAcKzSDZYfP1Klcy7FxHq80b+yjXB47Q7uVWXE6jZD9t7cMOg3J2vvuKgj2gc6jLtNrJMtpR2nPGHW931OCWHU5dFZXburw473GhWcHfLPA/t672hfz7p0aWad9OIcCD84AcIbiKR+12jHGx+p27w/1vDh3bHP5vEiaZuq0bXMnLdNee/e3QSxDdB65UPfPz04+e1x6ECeYmD9K99Swzl+ibVc0NaX3vUWXrb2tubqhvrKyQPszf57AeORVAT+ZgVf+XTuoMvX2UyNsLVEDwf5WSairV3oH2xGKSfPbNVPvxAm6lTmr50fgPZ0+AyD9WJ0PHTdmmc/vOfcTnVLk3vXP1/OOPnFMRlyA1cyEs7y8YWpypbaeXe81ANhhs7W11tXWFJZ3tLQ07vFyoW5N7vsTXZEd8Nm0+/4t2qNx54VmQgAMGha9mmxnQ/83zFubNK+1r9f7zRJNyWzzfcWL1itPpj7av1MT9UtX+/pNb6bNnDlljDWQDp8xw738IC1fGwBtTbo7yG2vKd9QUVNZUu92uR2+btq7/Zh5NHFuwE3ljn8u13QuWC5bYCIEQO9rbgTdCgx5FcCgd7gbts3q93e2F2vqwny77rXFqakq9DHvwBSv1wSO9/15Rs/6n5ed52pp2fl2ysTTDh8X7fe3zk7w8oOYYTq7U2fxEq7ftH7Zzpa6kD0O8tS0QN/h+vRlTeoYLrojgRAA+9r/oisDIiMBWFVJCfVQwKhEnVBxldmj+rvhTp3FN6r9PTV993pLvWtdX88Fir98ZamPT1tW9kXq0ecdlW3y61ib8i1e96fOBdzh2ZncuXXJ5xtC+jD4hKMCvnCvvK9WsxNPvWcYIQD2X28jbCDAgRiZMDZK53K7vdUzAETGVI9XWkt8Lolhr4uwfTf9osU+L7dc88n3+edcMMzgRwSYvU6UN+iNoG129zyH2VX85tu7bKH9emlZgV6laj7ernlt/N3DBAJg/5FiWxtx5DyuTbgo9NMBR+kFwNoKz/5647ULPF5Zc7XPBXZckfa88Ohrf/3c997j5jXr37roooy+D7j3+aG6Z4uzV243vv7yVleov11iaoBvcL1UoQnwpLunReJtr7DNBSBRu22GjJixAKKpiDnkvQDZepX9hhWTPb61TPGcIbPbd527dVeEnUYi4wlzn2P/nL9u+eLOYw7kk87dRXd9agv9Zi2Bjt1XdVZVsm04zRqBCRCugUBSCts3NcRq+IcEdy3g/9WmA9Abka5396jjy45+n+idEXci5T58ed9rHbuWL3qpI/gDrvvOHktK8a+3fGA7ECdroPfu5XBtp0HHv5ZE4uj3sA0FVlX3kpdbyK2Gfx+obtW14pkmEfrqSOJhel999YZDcB6EHPnQ4xP7rE+qO+96PvjwcuvVMfaPMuDtN37hs+tEJg/POjj16oVztAWr+u6V7sg7buFrAhA3Ly46ebi/S+QfwMaC6qhZ/+oOSTLkxyf6cLPOObvnlSnWQy8BRPzls997bWdfV+DWe6MWBnsXxKEzHVDZf2uh+c4f9N6lRFuMhrTcjJSEpMzE9ZcclJ2R8Ze6NZoXt/7+2cjrBgjrOIC2t5akREfA1dDeVN/J7gPQByCnDtmt8/LSdTP6dyKYkxsjMAJk7vUnfvj5r310BbQ+O+VoEexx0r6Wsm9NP8cnOo9hUtKnjJw4LCk+3mwyKIqgqoO0LyZfVahdXf2Xh55NFQiA/Rd16aqriYS7gVJIEnwARgLRqFF6AVD29Ij+rQltzdwZgQFAImrKhMtXfrJml8/Bhlv+MSk6uO236gw2iN43Rqn4aU0FwTD1d7OGx4Zj9L3pt9sf07RuXZ+MvjMaAdCzWu+OiGUBVEGsHojyT9YLv9Pp5FA/zL2nX4OBzNoRMeKOcf69NynlgJ5P2dnnlP244rsa75OB1SWrfI6FtFd7a+6V7tDpAkjat1M1q28lLrwpbLferTes/kFz6B1PDbkiGgGw/1SIlL3AbqIDEkViRm6Rzsu2V6b3a1aYWWf+ypTzImRnGkfkzC9b88OOde1e9mjzyuN8nXb2XV7mK/JmnQ6GmL01gKZvPG+uRF1+q2eN++BdbkTG7ZXavGp9MuusyHoYFx4NdmBPg5Gn644irb71i/4MVI/SuYpviZxvrcSNX/DPd758ak6m/um1xPeNgEIvg6A6P9Y2LeSR3VUpLtY8JWXqzWme139uOngla9bvdTq4i+8pYATAIGK6eJTu69tuesce/JlgHK8ZmsLfRdboQOOQGYs++fCBsXr5V+P7OaIbNulXAH7VuX2qHLEvADX9ohdrJza6dxy8PWC+eIG2lsebbi1iBMAgMsZLla/4jlfbgz8TRms7AQo3R9roAmE57OY3L9OZSOjwnVUdH+vej7V9pNOFn7TvQSflmgI4VrvnO384iN8/+urJOj0QPy6uYwTA4BF96Xj969nuW25YF3QzYJR2QEvVW62R1wKKmvLY33VWGPJdAvjDdXo9p9+9qfO2o3L37U/PHw1J0z6BZfW6g/ntx9yjM+7I9eaTnQiAQdQLMPoGL4vAtP373Ee3BzlyNfYsbbF5e0kEDjSj2AvPDPg9ZQ/s1pR13nafzh1Vy7H7KhhbPX/W0KTZSN1Lew5q4TrpFp1ZBG1Pvm5HAAwiZ53ipcOfS/668ImNehGgtvcxo81whLZmXfXIZt9vcrcdoG9oq/TxcU0TA9/gssc9G/Rc/Ve9BxBnzt57ArOmULXt9AwA10dLD+6hN184V+fVlsdWqQiAwVMFSL1jmrefta+8+/SzH12+q3H/nFburNv+6S23NPexUZ0VcvmXq3723qbgzjV3vXGAvmLdtXes9jrHh7UVXkNfI6HbX7i7qlcZcW/+w9t6o4tOyvOxlbc97iY4lt3fcJCPffJ9eg3AnX/8JWJOT6wJeOBNu+9qr+vluHbvXmLKy0zNzIpOltTa2FbUUF9S1nddPu78n7UD43++dMElQ/WOKNvrCj5YVnvbAfqC6s6P3ph73uEpeo/k4NKPNK/F97kMp/357YtOSNh7dXLUffTMVr2LZvqF+6rYYsQqz59+9/y1PfpKufndv+0+6Ok//q5btF2XvPauF7MEAmCwMMy+5Q5f/d6OzZvJaFaMgtxOt59r6Yt5R+iMfN/x4HcXzxzu2eJwVReu/HJbvXoAjzVXv/nV1JNmjNPc+ebih7T9bof1PRrO/e2GU08fPzReUkdL8U9f/9SiW32d1WOR/RGaH3f8w379vpFArh0vvVEThhr2qRsf01Zd1G+fvCcOATBoGBc2Pl3r+1ecgd4QyLx+s84qgO1Lf8iafMKI7FiLMBnsbu5sr6ssXFNU3XjA7zypNV8uTcuddURueoxF7q13NJcve3OLdnHM2UY/tlf32rtpiRZBjk6vwwZybty/uojI12maLP7mwiOHGc0OZ9Pmb5btDEvDO/7GTZ/oHO7n0xdZEQCDphsg+ubE+2tDfGk58dLH9brebDt2vCfS0hNkdFSLU22sq3EftOlWanX1zzJpTFpqXswQE9e3lu8q31qv88cnT/ev+tuxa5fvZtCinkspjklo0rYkfloZN84a09GxuyJsk87S7tm+Q/u3255IudiAABg0CRCz0PFgiDugLFf+uFL/pGaurg7TF2V3bS0Jq2KS5HTZ9Gs1lt9khqb9O+eCHsMMRc7YlXofqHlluI/9pOv/orOGa+XDY4+IhB543AU4SAlw3TMTQtvtI0Y+MDEyvyy3t9TV1DS26pd/ecolIZmfK6b9ObPnv1Pn+TPBMgxTg00XLdRp8vD2PxQyAmDwMJ/7xtlRoU2A4x7MHYA7YuqfMkPy7Uc/OLHXySvPn9D3u1JPC8M3Trhplt7LK+8tRwAMIoZJT1wT2gdDKHMfzBlwD1hNu21iX585xZ/usRH3nOCxnZEL+lxw2HLFqeGo/g29SW9dcffnL3QgAAZTMyDrr/+dHxv0262JmoJjPu/lEwZWJ44Y84/5fX7iGbf0WZLF6CfO9Rxhbb7o3D7OZvNVN4dlOQ4x57YEnZfbnvi3DQEwmFhm/Oupk2OCOoUSZ/39Mm1LUpn10lVJA6kddNqr5/Z9CzBq0fUJvn/DOOO5U7Q5En/vST4f4WVdeFdyeL63acEFep0PbYuXuMJ9SHAX4KBeChIvmvvpa78GOiZfpB5zzjGZik7VWebeN+GlDa4B8vWzLliU488VJ+731sd8TW20nH/TRJ0CJXIfuvsz7zf7Ey65NSVcY/ATby5Yq/Ny6V8zj0AADK6egMwr5xe8t7zS/9afKW3iKUePt3hpOIukK+f9941dfkwwVYZOPzWc31wZetrCyX52gw65Le/hLd7GQ1sOu3J+rO7ukBOf/et/vCSHGH/7GeEbfCdH332lznAm/uX2l4YLBMCgItNOnl2y8tuVtR19X7ijLGkzph0xzip9nCRK7h/PWfbpqnafQwmj4qccc+K4A9UAjj3ZVeV7/qLRMubkUyZZ/D7XzReMf+3tKp0IEDGjLz0jy9vNPJn5yOFvrNYJVyXjrMsnhbW5e+IivUqN+u2DD6QJBMDgageIqLH5Z5dt+2FzVYndV10hI/Hoo3LTYvq6dS2MY0aeU/Dt2qJqLxXchNyhR58wKlmnfRynvY+o//TOeO0v9ljvL/5Pl2/9dltFsZdvI9NHHDbz8KHmAE50oUz6y2mvrd7hkSoya8qpJ+T6eMSwiLt01ofve64OZsg/auHkrkpDtOaLDOtdBESa9qv6XsNdSde8w6iNWsvCkuV67y748gJzWM/GUA5GaD5xzSApxMd/0//LidpSX7qrfNt2m93lcJDa4qZYE5HRrJiMqXnZQzOHpcYFcGqoTaXFhet3ttkdDrK3kdVCZDGYjEnjcnNyspL0r71qg3Z8cpRuK71Bu5CGObtXyVHba0t3l2/bYrO7bC5ytlBUNCkWgzlu6si8nGEJ3lKs9XRtsTj/la77gPaKghUrmzo71VZ3nGKwWFKPnThhRFSfMaI2bCtYUdjS6XQ1G2OlxZp61PQpWd3px82auXnGrF572VWpnbdlzfH19xzlmuATadquWa7XHwxuyTQiAAZlAFDXExKdrS2dLW3k2m2jYXFE0fHGuGirVIQMtGbIrLo6mxrbW6i5QqSmECVHxUXHKoo8WM9gZ1bdjtaWjqZOai+l5CFkTo5KjFMUxcdjV30FAJHq6qyrb3CUO7LNlpSkBLPi31dht7NtT127rcSaZUhJSY4yCEGAJkAEtgYUxRgVmxGqpoU0RCWGcXCgENJgDtW36arym0zxI4P4IAaDJRVnl3+7GLsAAAEAAAgAAEAAAAACAAAQAACAAAAABAAAIAAAAAEAAAgAAEAAAAACAAAQAACAAAAABAAARJyQLghivnT2INltI3DmAALAU9R12KEAaAIAAAIAABAAADAY+gAAAhUdr3nJgkW8D56QPhcAIECOpdpH5uUca8SOQQAAAPoAAAABAAAIAABAAAAAAgAAEAAAgAAAAAQAACAAAAABAAAIAABAAAAAAgAAEAAACADsAgAEAAAgAAAAAQAACAAAQAAAAAIAABAAAIAAAAAEAAAgAAAAAQAACAAAQAAAAAIAABAAAIAAAAAEAAAgAAAAAQAACAAAQAAAAAIAABAAAIAAAAAEAAAgAAAAAQAACAAAQAAAAAIAABAAAIAAAAAEAAAgAAAAAQAACAAABAAAIAAAAAEAAAgAAEAAAAACAAAQAACAAAAABAAAIAAAAAEAAAgAAEAAAAACAAAQAACAAAAABAAAIAAAAAEAAAgAAEAAAAACAAAQAACAAAAABAAAIAAAAAEAAAgAAEAAAAACAAAQAACAAAAABAAAIAAAAAEAAAgAAEAAACAAAAABAAAIAABAAAAAAgAAEAAAgAAAAAQAACAAAAABAAAIAABAAAAAAgAAEAAAgAAAAAQAACAAAAABAAAIAABAAAAAAgAAEAAAgAAAAAQAACAAAAABAAAIAABAAAAAAgAAEAAAgAAAAP/8f6aM7IPaUEKvAAAAAElFTkSuQmCC;" vertex="1" parent="1">
          <mxGeometry x="331" y="-27.22" width="127" height="67.22" as="geometry" />
        </mxCell>
        <mxCell id="cYbpTIdxBDw8iZ4d2G3q-162" value="" style="ellipse;whiteSpace=wrap;html=1;aspect=fixed;strokeColor=#B3B3B3;" vertex="1" parent="1">
          <mxGeometry x="293" y="-32" width="54" height="54" as="geometry" />
        </mxCell>
        <mxCell id="cYbpTIdxBDw8iZ4d2G3q-29" value="" style="rounded=1;whiteSpace=wrap;html=1;fontFamily=KoPub돋움체;fontSize=14;fontStyle=1;fontColor=#0066CC;strokeColor=#97D077;" vertex="1" parent="1">
          <mxGeometry x="260" y="100" width="120" height="110" as="geometry" />
        </mxCell>
        <mxCell id="cYbpTIdxBDw8iZ4d2G3q-1" style="edgeStyle=orthogonalEdgeStyle;rounded=0;orthogonalLoop=1;jettySize=auto;html=1;exitX=1;exitY=0.5;exitDx=0;exitDy=0;strokeColor=#808080;" edge="1" parent="1" source="cYbpTIdxBDw8iZ4d2G3q-2" target="cYbpTIdxBDw8iZ4d2G3q-4">
          <mxGeometry relative="1" as="geometry" />
        </mxCell>
        <mxCell id="cYbpTIdxBDw8iZ4d2G3q-2" value="&lt;font style=&quot;color: rgb(0, 51, 0);&quot;&gt;보고서 주제&lt;/font&gt;" style="text;html=1;align=center;verticalAlign=middle;whiteSpace=wrap;rounded=0;fontStyle=1;fontFamily=KoPub돋움체;fontSize=14;fontColor=#808080;" vertex="1" parent="1">
          <mxGeometry x="60" y="50" width="80" height="20" as="geometry" />
        </mxCell>
        <mxCell id="cYbpTIdxBDw8iZ4d2G3q-3" value="조사 보고서" style="text;html=1;align=center;verticalAlign=middle;whiteSpace=wrap;rounded=0;fontStyle=1;fontFamily=KoPub돋움체;fontSize=14;fontColor=#003300;" vertex="1" parent="1">
          <mxGeometry x="500" y="50" width="80" height="20" as="geometry" />
        </mxCell>
        <mxCell id="cYbpTIdxBDw8iZ4d2G3q-4" value="" style="rounded=1;whiteSpace=wrap;html=1;fontFamily=KoPub돋움체;fontSize=14;fontStyle=1;fontColor=#0066CC;strokeColor=#0066CC;" vertex="1" parent="1">
          <mxGeometry x="160" y="30" width="320" height="60" as="geometry" />
        </mxCell>
        <mxCell id="cYbpTIdxBDw8iZ4d2G3q-5" style="edgeStyle=orthogonalEdgeStyle;rounded=1;orthogonalLoop=1;jettySize=auto;html=1;curved=0;strokeColor=#808080;" edge="1" parent="1" source="cYbpTIdxBDw8iZ4d2G3q-6" target="cYbpTIdxBDw8iZ4d2G3q-4">
          <mxGeometry relative="1" as="geometry">
            <Array as="points">
              <mxPoint x="190" y="100" />
              <mxPoint x="190" y="100" />
            </Array>
          </mxGeometry>
        </mxCell>
        <mxCell id="cYbpTIdxBDw8iZ4d2G3q-6" value="작성 계획" style="text;html=1;align=center;verticalAlign=middle;whiteSpace=wrap;rounded=0;fontStyle=1;fontFamily=KoPub돋움체;fontSize=14;fontColor=#808080;" vertex="1" parent="1">
          <mxGeometry x="150" y="110" width="70" height="20" as="geometry" />
        </mxCell>
        <mxCell id="cYbpTIdxBDw8iZ4d2G3q-7" style="edgeStyle=orthogonalEdgeStyle;rounded=1;orthogonalLoop=1;jettySize=auto;html=1;curved=0;strokeColor=#808080;" edge="1" parent="1" source="cYbpTIdxBDw8iZ4d2G3q-20" target="cYbpTIdxBDw8iZ4d2G3q-6">
          <mxGeometry relative="1" as="geometry">
            <mxPoint x="260" y="70" as="sourcePoint" />
            <mxPoint x="170" y="140" as="targetPoint" />
            <Array as="points">
              <mxPoint x="180" y="100" />
              <mxPoint x="180" y="100" />
            </Array>
          </mxGeometry>
        </mxCell>
        <mxCell id="cYbpTIdxBDw8iZ4d2G3q-8" value="검색어" style="text;html=1;align=center;verticalAlign=middle;whiteSpace=wrap;rounded=0;fontStyle=1;fontFamily=KoPub돋움체;fontSize=14;fontColor=#808080;" vertex="1" parent="1">
          <mxGeometry x="220" y="110" width="40" height="20" as="geometry" />
        </mxCell>
        <mxCell id="cYbpTIdxBDw8iZ4d2G3q-9" style="edgeStyle=orthogonalEdgeStyle;rounded=1;orthogonalLoop=1;jettySize=auto;html=1;curved=0;strokeColor=#808080;" edge="1" parent="1" source="cYbpTIdxBDw8iZ4d2G3q-21" target="cYbpTIdxBDw8iZ4d2G3q-8">
          <mxGeometry relative="1" as="geometry">
            <mxPoint x="260" y="90" as="sourcePoint" />
            <mxPoint x="130" y="130" as="targetPoint" />
            <Array as="points">
              <mxPoint x="240" y="110" />
              <mxPoint x="240" y="110" />
            </Array>
          </mxGeometry>
        </mxCell>
        <mxCell id="cYbpTIdxBDw8iZ4d2G3q-10" style="edgeStyle=orthogonalEdgeStyle;rounded=1;orthogonalLoop=1;jettySize=auto;html=1;curved=0;strokeColor=#808080;" edge="1" parent="1" source="cYbpTIdxBDw8iZ4d2G3q-4" target="cYbpTIdxBDw8iZ4d2G3q-3">
          <mxGeometry relative="1" as="geometry">
            <mxPoint x="414" y="30" as="sourcePoint" />
            <mxPoint x="454" y="-19.999999999999886" as="targetPoint" />
            <Array as="points">
              <mxPoint x="440" y="60" />
              <mxPoint x="440" y="60" />
            </Array>
          </mxGeometry>
        </mxCell>
        <mxCell id="cYbpTIdxBDw8iZ4d2G3q-11" value="검색결과 1" style="text;html=1;align=center;verticalAlign=middle;whiteSpace=wrap;rounded=0;fontStyle=1;fontFamily=KoPub돋움체;fontSize=14;fontColor=#808080;" vertex="1" parent="1">
          <mxGeometry x="290" y="110" width="70" height="20" as="geometry" />
        </mxCell>
        <mxCell id="cYbpTIdxBDw8iZ4d2G3q-12" value="검색결과 2" style="text;html=1;align=center;verticalAlign=middle;whiteSpace=wrap;rounded=0;fontStyle=1;fontFamily=KoPub돋움체;fontSize=14;fontColor=#808080;" vertex="1" parent="1">
          <mxGeometry x="290" y="140" width="70" height="20" as="geometry" />
        </mxCell>
        <mxCell id="cYbpTIdxBDw8iZ4d2G3q-13" value="검색결과 N" style="text;html=1;align=center;verticalAlign=middle;whiteSpace=wrap;rounded=0;fontStyle=1;fontFamily=KoPub돋움체;fontSize=14;fontColor=#808080;" vertex="1" parent="1">
          <mxGeometry x="290" y="180" width="70" height="20" as="geometry" />
        </mxCell>
        <mxCell id="cYbpTIdxBDw8iZ4d2G3q-14" style="edgeStyle=orthogonalEdgeStyle;rounded=1;orthogonalLoop=1;jettySize=auto;html=1;curved=0;strokeColor=#808080;" edge="1" parent="1" source="cYbpTIdxBDw8iZ4d2G3q-8" target="cYbpTIdxBDw8iZ4d2G3q-11">
          <mxGeometry relative="1" as="geometry">
            <mxPoint x="260" y="70" as="sourcePoint" />
            <mxPoint x="130" y="120" as="targetPoint" />
            <Array as="points">
              <mxPoint x="260" y="120" />
              <mxPoint x="260" y="120" />
            </Array>
          </mxGeometry>
        </mxCell>
        <mxCell id="cYbpTIdxBDw8iZ4d2G3q-15" style="edgeStyle=orthogonalEdgeStyle;rounded=1;orthogonalLoop=1;jettySize=auto;html=1;curved=0;strokeColor=#808080;entryX=0;entryY=0.5;entryDx=0;entryDy=0;" edge="1" parent="1" source="cYbpTIdxBDw8iZ4d2G3q-8" target="cYbpTIdxBDw8iZ4d2G3q-12">
          <mxGeometry relative="1" as="geometry">
            <mxPoint x="250" y="140" as="sourcePoint" />
            <mxPoint x="290" y="140" as="targetPoint" />
            <Array as="points">
              <mxPoint x="270" y="120" />
              <mxPoint x="270" y="150" />
            </Array>
          </mxGeometry>
        </mxCell>
        <mxCell id="cYbpTIdxBDw8iZ4d2G3q-16" style="edgeStyle=orthogonalEdgeStyle;rounded=1;orthogonalLoop=1;jettySize=auto;html=1;curved=0;strokeColor=#808080;entryX=0;entryY=0.5;entryDx=0;entryDy=0;" edge="1" parent="1" source="cYbpTIdxBDw8iZ4d2G3q-8" target="cYbpTIdxBDw8iZ4d2G3q-13">
          <mxGeometry relative="1" as="geometry">
            <mxPoint x="250" y="140" as="sourcePoint" />
            <mxPoint x="290" y="190" as="targetPoint" />
            <Array as="points">
              <mxPoint x="270" y="120" />
              <mxPoint x="270" y="190" />
            </Array>
          </mxGeometry>
        </mxCell>
        <mxCell id="cYbpTIdxBDw8iZ4d2G3q-17" style="edgeStyle=orthogonalEdgeStyle;rounded=1;orthogonalLoop=1;jettySize=auto;html=1;curved=0;strokeColor=#808080;" edge="1" parent="1" source="cYbpTIdxBDw8iZ4d2G3q-11" target="cYbpTIdxBDw8iZ4d2G3q-22">
          <mxGeometry relative="1" as="geometry">
            <mxPoint x="250" y="160" as="sourcePoint" />
            <mxPoint x="290" y="160" as="targetPoint" />
            <Array as="points">
              <mxPoint x="370" y="120" />
            </Array>
          </mxGeometry>
        </mxCell>
        <mxCell id="cYbpTIdxBDw8iZ4d2G3q-18" style="edgeStyle=orthogonalEdgeStyle;rounded=1;orthogonalLoop=1;jettySize=auto;html=1;curved=0;strokeColor=#808080;" edge="1" parent="1" source="cYbpTIdxBDw8iZ4d2G3q-12" target="cYbpTIdxBDw8iZ4d2G3q-22">
          <mxGeometry relative="1" as="geometry">
            <mxPoint x="360" y="170" as="sourcePoint" />
            <mxPoint x="370" y="110" as="targetPoint" />
            <Array as="points">
              <mxPoint x="370" y="150" />
            </Array>
          </mxGeometry>
        </mxCell>
        <mxCell id="cYbpTIdxBDw8iZ4d2G3q-19" style="edgeStyle=orthogonalEdgeStyle;rounded=1;orthogonalLoop=1;jettySize=auto;html=1;curved=0;strokeColor=#808080;" edge="1" parent="1" source="cYbpTIdxBDw8iZ4d2G3q-13" target="cYbpTIdxBDw8iZ4d2G3q-22">
          <mxGeometry relative="1" as="geometry">
            <mxPoint x="360" y="210" as="sourcePoint" />
            <mxPoint x="370" y="120" as="targetPoint" />
            <Array as="points">
              <mxPoint x="370" y="190" />
            </Array>
          </mxGeometry>
        </mxCell>
        <mxCell id="cYbpTIdxBDw8iZ4d2G3q-20" value="계획&lt;div&gt;작성&lt;/div&gt;" style="rounded=1;whiteSpace=wrap;html=1;fontFamily=KoPub돋움체;fontSize=14;fontStyle=1;fillColor=#dae8fc;strokeColor=#6c8ebf;fontColor=#0066CC;" vertex="1" parent="1">
          <mxGeometry x="170" y="40" width="40" height="40" as="geometry" />
        </mxCell>
        <mxCell id="cYbpTIdxBDw8iZ4d2G3q-21" value="검색어&lt;br&gt;&lt;div&gt;생성&lt;/div&gt;" style="rounded=1;whiteSpace=wrap;html=1;fontFamily=KoPub돋움체;fontSize=14;fontStyle=1;fillColor=#dae8fc;strokeColor=#6c8ebf;fontColor=#0066CC;" vertex="1" parent="1">
          <mxGeometry x="220" y="40" width="40" height="40" as="geometry" />
        </mxCell>
        <mxCell id="cYbpTIdxBDw8iZ4d2G3q-22" value="품질&lt;div&gt;검수&lt;/div&gt;" style="rounded=1;whiteSpace=wrap;html=1;fontFamily=KoPub돋움체;fontSize=14;fontStyle=1;fillColor=#dae8fc;strokeColor=#6c8ebf;fontColor=#0066CC;" vertex="1" parent="1">
          <mxGeometry x="350" y="40" width="40" height="40" as="geometry" />
        </mxCell>
        <mxCell id="cYbpTIdxBDw8iZ4d2G3q-23" style="edgeStyle=orthogonalEdgeStyle;rounded=1;orthogonalLoop=1;jettySize=auto;html=1;curved=0;strokeColor=#808080;" edge="1" parent="1" source="cYbpTIdxBDw8iZ4d2G3q-22" target="cYbpTIdxBDw8iZ4d2G3q-21">
          <mxGeometry relative="1" as="geometry">
            <mxPoint x="250" y="90" as="sourcePoint" />
            <mxPoint x="250" y="160" as="targetPoint" />
            <Array as="points" />
          </mxGeometry>
        </mxCell>
        <mxCell id="cYbpTIdxBDw8iZ4d2G3q-24" value="결과&lt;div&gt;취합&lt;/div&gt;" style="rounded=1;whiteSpace=wrap;html=1;fontFamily=KoPub돋움체;fontSize=14;fontStyle=1;fillColor=#dae8fc;strokeColor=#6c8ebf;fontColor=#0066CC;" vertex="1" parent="1">
          <mxGeometry x="430" y="40" width="40" height="40" as="geometry" />
        </mxCell>
        <mxCell id="cYbpTIdxBDw8iZ4d2G3q-25" style="edgeStyle=orthogonalEdgeStyle;rounded=1;orthogonalLoop=1;jettySize=auto;html=1;curved=0;strokeColor=#808080;" edge="1" parent="1" source="cYbpTIdxBDw8iZ4d2G3q-22" target="cYbpTIdxBDw8iZ4d2G3q-24">
          <mxGeometry relative="1" as="geometry">
            <mxPoint x="360" y="70" as="sourcePoint" />
            <mxPoint x="270" y="70" as="targetPoint" />
            <Array as="points" />
          </mxGeometry>
        </mxCell>
        <mxCell id="cYbpTIdxBDw8iZ4d2G3q-26" value="불충분" style="text;html=1;align=center;verticalAlign=middle;whiteSpace=wrap;rounded=0;fontStyle=0;fontFamily=KoPub돋움체;fontSize=14;fontColor=#808080;" vertex="1" parent="1">
          <mxGeometry x="290" y="40" width="40" height="20" as="geometry" />
        </mxCell>
        <mxCell id="cYbpTIdxBDw8iZ4d2G3q-27" value="충분" style="text;html=1;align=center;verticalAlign=middle;whiteSpace=wrap;rounded=0;fontStyle=0;fontFamily=KoPub돋움체;fontSize=14;fontColor=#808080;" vertex="1" parent="1">
          <mxGeometry x="390" y="40" width="38.5" height="20" as="geometry" />
        </mxCell>
        <mxCell id="cYbpTIdxBDw8iZ4d2G3q-30" value="웹" style="text;html=1;align=center;verticalAlign=middle;whiteSpace=wrap;rounded=0;fontStyle=1;fontFamily=KoPub돋움체;fontSize=14;fontColor=#009900;" vertex="1" parent="1">
          <mxGeometry x="220" y="145" width="40" height="20" as="geometry" />
        </mxCell>
        <mxCell id="cYbpTIdxBDw8iZ4d2G3q-32" style="edgeStyle=orthogonalEdgeStyle;rounded=1;orthogonalLoop=1;jettySize=auto;html=1;curved=0;strokeColor=#808080;entryX=0.5;entryY=1;entryDx=0;entryDy=0;" edge="1" parent="1" source="cYbpTIdxBDw8iZ4d2G3q-4" target="cYbpTIdxBDw8iZ4d2G3q-2">
          <mxGeometry relative="1" as="geometry">
            <mxPoint x="130" y="140" as="sourcePoint" />
            <mxPoint x="160" y="170" as="targetPoint" />
            <Array as="points">
              <mxPoint x="130" y="80" />
              <mxPoint x="130" y="110" />
              <mxPoint x="100" y="110" />
            </Array>
          </mxGeometry>
        </mxCell>
        <mxCell id="cYbpTIdxBDw8iZ4d2G3q-33" value="상세 설명 요청" style="text;html=1;align=center;verticalAlign=middle;whiteSpace=wrap;rounded=0;fontStyle=1;fontFamily=KoPub돋움체;fontSize=14;fontColor=#808080;" vertex="1" parent="1">
          <mxGeometry x="60" y="110" width="90" height="20" as="geometry" />
        </mxCell>
        <mxCell id="cYbpTIdxBDw8iZ4d2G3q-34" style="edgeStyle=orthogonalEdgeStyle;rounded=1;orthogonalLoop=1;jettySize=auto;html=1;curved=0;strokeColor=#808080;exitX=0.5;exitY=0;exitDx=0;exitDy=0;" edge="1" parent="1" source="cYbpTIdxBDw8iZ4d2G3q-2" target="cYbpTIdxBDw8iZ4d2G3q-20">
          <mxGeometry relative="1" as="geometry">
            <mxPoint x="180" y="-30" as="sourcePoint" />
            <mxPoint x="100" y="-80" as="targetPoint" />
            <Array as="points">
              <mxPoint x="100" />
              <mxPoint x="190" />
            </Array>
          </mxGeometry>
        </mxCell>
        <mxCell id="cYbpTIdxBDw8iZ4d2G3q-35" value="계획 수정" style="text;html=1;align=center;verticalAlign=middle;whiteSpace=wrap;rounded=0;fontStyle=1;fontFamily=KoPub돋움체;fontSize=14;fontColor=#808080;" vertex="1" parent="1">
          <mxGeometry x="100" y="-20" width="80" height="20" as="geometry" />
        </mxCell>
        <mxCell id="cYbpTIdxBDw8iZ4d2G3q-36" value="Google Docs" style="text;html=1;align=center;verticalAlign=middle;whiteSpace=wrap;rounded=0;fontStyle=1;fontFamily=KoPub돋움체;fontSize=14;fontColor=#808080;" vertex="1" parent="1">
          <mxGeometry x="490" y="-20" width="100" height="20" as="geometry" />
        </mxCell>
        <mxCell id="cYbpTIdxBDw8iZ4d2G3q-37" style="edgeStyle=orthogonalEdgeStyle;rounded=1;orthogonalLoop=1;jettySize=auto;html=1;curved=0;strokeColor=#808080;entryX=0.5;entryY=1;entryDx=0;entryDy=0;exitX=0.5;exitY=0;exitDx=0;exitDy=0;" edge="1" parent="1" source="cYbpTIdxBDw8iZ4d2G3q-3" target="cYbpTIdxBDw8iZ4d2G3q-36">
          <mxGeometry relative="1" as="geometry">
            <mxPoint x="250" y="90" as="sourcePoint" />
            <mxPoint x="250" y="120" as="targetPoint" />
            <Array as="points">
              <mxPoint x="540" y="40" />
              <mxPoint x="540" y="40" />
            </Array>
          </mxGeometry>
        </mxCell>
        <mxCell id="cYbpTIdxBDw8iZ4d2G3q-38" value="PDF" style="text;html=1;align=center;verticalAlign=middle;whiteSpace=wrap;rounded=0;fontStyle=1;fontFamily=KoPub돋움체;fontSize=14;fontColor=#808080;" vertex="1" parent="1">
          <mxGeometry x="490" y="100" width="100" height="20" as="geometry" />
        </mxCell>
        <mxCell id="cYbpTIdxBDw8iZ4d2G3q-39" style="edgeStyle=orthogonalEdgeStyle;rounded=1;orthogonalLoop=1;jettySize=auto;html=1;curved=0;strokeColor=#808080;entryX=0.5;entryY=0;entryDx=0;entryDy=0;exitX=0.5;exitY=1;exitDx=0;exitDy=0;" edge="1" parent="1" source="cYbpTIdxBDw8iZ4d2G3q-3" target="cYbpTIdxBDw8iZ4d2G3q-38">
          <mxGeometry relative="1" as="geometry">
            <mxPoint x="540" y="80" as="sourcePoint" />
            <mxPoint x="550" y="30" as="targetPoint" />
            <Array as="points">
              <mxPoint x="540" y="90" />
              <mxPoint x="540" y="90" />
            </Array>
          </mxGeometry>
        </mxCell>
        <mxCell id="cYbpTIdxBDw8iZ4d2G3q-41" value="" style="shape=image;verticalLabelPosition=bottom;labelBackgroundColor=default;verticalAlign=top;aspect=fixed;imageAspect=0;image=https://upload.wikimedia.org/wikipedia/commons/thumb/8/8a/Google_Gemini_logo.svg/800px-Google_Gemini_logo.svg.png;" vertex="1" parent="1">
          <mxGeometry x="115" y="-38.5" width="50" height="18.5" as="geometry" />
        </mxCell>
        <mxCell id="cYbpTIdxBDw8iZ4d2G3q-42" value="" style="shape=image;verticalLabelPosition=bottom;labelBackgroundColor=default;verticalAlign=top;aspect=fixed;imageAspect=0;image=https://upload.wikimedia.org/wikipedia/commons/thumb/8/8a/Google_Gemini_logo.svg/800px-Google_Gemini_logo.svg.png;" vertex="1" parent="1">
          <mxGeometry x="515" y="-38.5" width="50" height="18.5" as="geometry" />
        </mxCell>
        <mxCell id="cYbpTIdxBDw8iZ4d2G3q-155" value="" style="shape=image;verticalLabelPosition=bottom;labelBackgroundColor=default;verticalAlign=top;aspect=fixed;imageAspect=0;image=data:image/png,iVBORw0KGgoAAAANSUhEUgAAAwAAAADRCAQAAADRAh0SAAAABGdBTUEAALGPC/xhBQAAACBjSFJNAAB6JgAAgIQAAPoAAACA6AAAdTAAAOpgAAA6mAAAF3CculE8AAAAAmJLR0QA/4ePzL8AAAAHdElNRQfoBwMCFAyyyg+hAAA0fUlEQVR42u2debxW0/rAv+c0d5pHRTTQoAwVpWRKuaGEyFCOUplzUtzED4nLIReZi1BmMiZFKqVLioqkQYNUUinN8znn90fS9L57P2vvtYf39Hz3P+dz3r3XWnuttdezhmdIIzWoRCNqcyRHciQVKUoxSlCIPNaxgzWsYSHzmMccFrITRVEURUBazMt3Am1oRiOqCe/fyc+M4wsmsVkbV1EUJRUpRDteZBl5Hq/tfEk/sdhQFEVRYkF9svnD89C/75XDWDIprlWqKIoSd9K5iClWhv59rzU8oWsBRVGU+FKQa5hrffDfc23jSapoJSuKosSPVvwY2OC/91xgsAoBRVGUONGAsYEP/nuudVwbe80nRVGUQ4KC9GVbaMP/7msStbXiFUVRoqU+00Ie/HdfW+hLAa1+RVGUqMhkSyTD/+5rAodpEyiKooRPEYZEOPjvvpZyijaEoihKuBzG1MiH/zzy2Mql2hiKohyqRKERU5PPqeX56TUsYR1b2MxWMihFUY6imucd/Txu57/aDRRFUcLgeH73MFf/lZfpRnPKJ0yzELVoTzYT2ewh7f7aKIqiKMHTkLVGg3Muk7mBmuL0i9Gel/nTUAQ8qA2jKMqhR7hbQLX5ikriu1fwAq+ywEM+henADZxm8MSdPARAFepTlUpUoRJFACjBRv5iLWtZznx+YYN2GkVRFFOqsUQ8J1/MjRT1md/xjCBXnONbjBetHP5gDPfQihLaoIqiKDJKMls4FK+mB4Us5dqI0QFpEO1iMrdzjDasoiiKM2m8L/TgPyTJQa93OrA8QFXSn7iDytrAiqIoyegn1PU5NZDcSwdsdraDd2mljawoinIwZ7NLMIx+SNkAy3AlGwM2K5vGBeppVFEUZf/59xLB1k+fwAfPJiH4HZ3JBdrgiqIoexgqCNVyWcBlSKerJwM0L9cYdTetKIoCcJ7rgLkx8P3zU0N2O72dbIpp0yuKcmhTmAWuvvlPD7QEhzPcwBrA3vUzjbT5FUU5lOnrqk1/cYC5F6MvGyLzNbqT/hp2RlGUQ5WKrHMZJLsGmHtHA8vjoK7RlNZuoCjKociTLsPj04Hl3JBJsYg4kMcctRZWFOXQo5JLyMfv/3a3Zj/fF8ixYt611soG0hrO1M6gKEr8KBhg2j0dNWE2chnbredZmJ7c7XnbZRUzmcVs5rKK1fv4/azIkRxJdRrS1IOKZzk+pQOjtbMpinKoUII1jvPiXgHk2ZZ5Ho9rv6QfjUSmaOW5kJdd3u3gaxvttUsoinKocJOLxazttUc9j34/f6EfVTysnFrxOtuNNpQu0k6hKMqhwVTHOF/NreZVlifY4WHwH0dLXw4oqnAfKw1C0J+q3UJRlPxPbceh8F2LOaWTaTAI772+sWR/XJy+rBcfB9fVrqEoSn7nQcf5f0Nr+ZzFDx4G//m0s/q2hzFYaG28iIraORRFya8U4lTuYbXDIDjKUk41GOFh8F/HbRQO4L3P4lehq7h07SSKouQ36tKHUQKv+2dYyKsE/2Gr8eCfwwsBRu8qxUuiUtypXUVRlPxDKTIZK94E8ev3P41LPTl5+JZTAq+J7oLD6F201C6jKEp+4DRedbH43f+612d+TZniYfBfQseQonW1FNgILCZDO46iKKlNC8YZDsS51PSRX1VPrp03c0+o3vnrCILQD9TOoyhK6nIKIz2FTPRKYbLE6pb7XiM5KvS6qe0afWynRgtQFCVqvNnjVuUZLvT05ASP5ezAQGoYPzWNXnwdQa3OpzUTHBU+C/I8TclL2X5TmjrUpjwZlKIkGRRnHZvZzEY28DtzWcRO/bgUJf+RRnf+8uwZ00vI9OMZ7yGn3+kSqcJlU9cQ9JemXNtXpTOD+ZI/BN6V5jOSBzhbQ2MqSpyHczNq8oIPHZZcyrPO6IkK3E8P47ha23mcB9kYcd125wXH3+dwHDkp0UuKcS5n09KTHfM2vmE8Y/hOPzYlZTmCHwzGyhUcR25oZesqVKwfyld+s7qSzb484y8yyq0QWaz1kMv71IpJt3nOpaRXpUDXb8wg/rQSGKd/BKcximKDuwx7e6sQy/aisEzX+MumAAMtBEiU8y9+9pDDj5wdo25TmFmOpV1AoRh3+tL09eheO7kFxCjahaSOqyj2mGvY01/PbwKgHJ9ZGACeEOf2vofU/+TGQAPceKEpu4KUyoFRgr7GMQ+k1w9cqkJASSFOM+7jWymTnwRAXRZY+fRvEu63/Wqc8k4GUTaWnecxx3JPjWGJS3K3p603k2sabXVcUVKEoR56+HX5RwDUddVql15XiLaavjZO9zPqWarMAtabJ4PfHMt+fMw6+/ku5bV3jeJIHVuU2JPhKTL4N/lFANgb/vNEs772xq6d7cwlT+VNlpPLGsZzmdWtpB5WtsXCoDLDQxr899ho9w1A5CqKTa722LvrhVS+QAVAHaPhfwdvMdinH1ATF8+2XDvXPsiq+SdaW2uggvzieHJRJCYdvVNgu/5O12SO1jFGiTFfeuzZD6e+AKgh8GqzdzDuTxXgRod7GgvynGXg2rmSheorzcAksX0/sjY0ZcbeIKwg2REM/ruv9Z7MAxUlDGp48D62+/ojJJWUwARABjPFS/lsyv39lFMweEkksD9EOU6yElUsne6O4SS38zClLORTxDGX4ZF38gp8Ednwv9tFYH/VC1JiyQAf/fr8VBYAabwlTPgjjtjnOb8CwD2+7690tFJxp/G94O1WcI0FlxIPOTqtiHbwa+gpuoLt6y2K62ijxIx0DxqJe68RqSwA+ooSXcElBzwXrADYxN1WvMscyVsGS7vvODXQhWSDCLt448BVPqXXJEroiKPEila+evT2UCKAByIA2rgYMO2+xifYhQ9OAOTy+n5rDa8U5z6jEDa7836Dar5yneqQeq/IOngzTy62g7q+oqSOOUqMeN1nj74lNQVARcFOfC4PJVThC0oATKW5hcpK4wrPeu7+Asvc6agRr8O/igAlbpT26fssjx9TUwC4q2Lu5Ookz/oVAKsCdO3cmMk+G3QJl3ncsT/WURU0ms2fuA3/eeTxZWzUYpVDness9OcTU08AdHBNagvtkj5tXwB8a2VWeBhDybG0V+0tmpfTqqpS6J37MJbGcPjPI49hOvIosWCKhd48KNUEQIarTshWznJ43r4AeNZ3FRXh31Znu95sED5wSPH0kLt2Eb7xVQObGM0jdKUJNSlLISCDyhzDOfRiMNM9605HfSaiKHuoY2WsCN7Q07IAeMDVpe9Fjs/HTwBc4GiJ6/Uyt0L+dyxcR+3mFc/vvYJHOdu1U1cmk/fY4TGPnRbtsBXFG49YGik6pJIAqOJ67HGtSwrxEgD1+VxQNfPow48emnaekR+ic2LjEainx648gUuNIhhU4f9Y5imntRo8RomUgtZ8oH2SSgLgWZdEnnNNIT4CoBxPsVM8ky/ADaz20LxjxE6fakXYSfalJps8vOdPHu0aC5PlKYb0OLUNViKkrbW9gp1UTRUBUCOJV5w91wyBGqRfAbDaigBIJzOhPtGBe/nDqbzPU2XIdqmBxA08mAqCMhVysK2YHFrHTmeSh+0uf1pYFTxtOV2ro5ASGe9Z3C7+d6oIgJccE9hAdUFx4rACaCVyKTcxYXnqMcZDE6/meoFj498comSFRS8Pns1txFi+2Diy8HqNF6BERHm2WRQA8wJdzVoTABXZasGqLeoVwJEin/ZLyXRolFb85CnseRuXsiVPdVFIHbuW8fbPw9Y89lfjB+PtNUWJgixR/1wmNiptlgoC4C6X4IWygSBKAZBBfxchtsd3qZvXmUJksc6DEBhJTYdUpzisIOK4sM3lNqu5lzBeXamjaCUKZoh654PcL+zHg+MvAAo6Ggblinz5RykA0ukiOLc38SdUmRc8mI5t5T9JxctYh6fCoImRfv4uS15X96WwozVEIlP6dB2NlJBpKOyddcXRAtYH6OvWkgBoa8mxaTQCoLmjszXv/oQaeTgyzWN5kg2m8Q6rkjAw8/rfM5AyFHYQg4muq3Q8UkLmSYOovxOF/bhT3AXAa47aMvLQ5eELgKoMF8jh37nW4252OxZ5EAKJXEh/62BeFTxmrm3vC6wcpY3OAhZZCfqpKPIpikwd/HoAugj78RfxFgBFHV0lvGFQnHAFQDHuFhxrbuMhX/6EinGPB7+AuQw/QAN4loOeQPB8a3SWEaTeQk0jxxw36pikhMglwq3esgBksEE4GtSMowDYE7WyjWPow0ExbapLGSiwGP2LM5jlK5+tDOBlHuZyo2Exjau4iId4jG1//6ds0ns3Bl5XzWkivnc5XckLsCyL6M474rtv5blAS5OIalSiDBkUAdaxiU0sZV1M56vVKflPWTeyhc2sZFkKDLSVOJxSlKIosIltLGUJO2NQrq6iuz7iLwA2867IxjaNzgyIb2M4SRGzwTOsFcCJ4t23PH7jCisz2lOZ5mEzaNHf3kCKOBwpjw+8hYcbrFzODKHHmZiGtQrpKziSbgxnWpI53TI+5wkuoUwMvtfSXMBARvJLElv3TUznLfrR1JoSry2K0IbH+CKhmeZOFvAmN1E/wvIdJvAekEce5/7zRAthL14ckEKDlRWA0yc/NIZzh/vpZtC1q/EGN9GL73zm+z+a0oX/cJjRUzUYwQR6sdWhA6wNuMYqcKn43mF8GUIb9qYt5YX33iDaQe2ZNEbFvlzN7AT/PYpudKSO45OHczityWIX3zCK4aGc2xxMXTrRmpNcen8GDWnIZcB6JvI+I6ypGTwpUqRozo6D/pfO+XThHAcV7ILUohaXA3N4k+EsiaB+r/5nTHRiJWP/+Xsyc6kreKY6p4fyZXla8Do5OqhglFbQK4BC9PakoZ9HDkMNh+7ElOJhD3aCOx3d0g0MuIX7isu5gSoh9bqbDOpOorqbLUrr4I2wlnzqQd13B29xWqhfaUm68z+PtqjreYGTrZTiU1F+RQ94qig3M9+4hoeJ/WzZ42dR2R7Z75l+kUa6sHAIfJXDY5MtftYSAfCnowDwZqO779K4/0Gd0wtH845V59LXB9qp01goLsntoX1qBQy0gfoHJAAa+GzHKVYClbqTQZZDtGzpNVZszWNXALQz6H8HTtoGO55O2qaZsFzHHbA23CUcfUrFUwA85fDY3bERAHWFnc/t+oX2Viq+tU9htO91VqDd+mSD8BUZIX5uHcXl+jkAAVCMQT4D1+w+MXlVbFrojcLc7slPbeLSvsPhoQqAIwytTxK5bTkjtB45RFSiaR5rJY9u8RQA442WzFEIgDI8Lggvsp5/c6Foqfm5lYOmgtzMGiufZblAu/UD4pLcTZgUMNgWqG1ZADRmjjXxvZaLA6ujE/jeeiija0MTAO2NXQAm3gLsHUp/LCZ0XH7zQU9eKnyTyfEUAKscFi3pkQuAwVwncu28Z4e/MLcL9Mx38pSVYbccTwv1BpJfvwbcsWch3SCrQLhcL66j26wKgIs82HU4X8MDWDsVJtt330p8ve95M8JEAPS1sMLaG4kk+PgQnUUl2Z7gKyksXqPVjZ8AqOTw0LdWj/a8CYBdIsm6/+5mZV4UHOyt4SbRmb8bDQzdG/gxtDOnlrgcL4Z+5FZcaEaTxySLAqC3h0NfyXlAeat1U4EJgQz+e5S7qwcqAArwvOUSPx14bxwnKscI4230/R3IxU4AOB18DI2BAPCq5d+Yr0Qfgh0t8/YsiOkRcG9xOc4kfIaJXdNVtCQAbg5sUJ1jMYJBQ5YEOPzvdj9yUmACoJh4WIpPYJWjhNOCdgmfbiR8h2XWLTN8C4ALHR7qHXMBsIX+Dn720rhc5LH7QyshT4rQVzyf3f+qE2jHHi0WpFF43pR7KLrMigB41uK2RKI6tGPw39JT2E7T6y9ODEgAPBNIeXftY35ln3tFZViZNCr2DOFbtImbALjO4aGLQhcAJoeqIwXL2GL0ZaNA53iQFRWtCgwSqoTtvRYEOsCmiUXqI0RBAXHw7cesCICgrwVU8l0npwp6rJ1rlfGe9KeR1u5q13Wg9+9EtoL/b9IUsoTv8HacBEA67BcV9+DhOK7M4HTaCY5Pt/IwdXnVxZtMIW5hIVm+l2d/kkUTvjJ65uNA6+lo8c706EjaMWcfm0pnmpIK1GKkz+PgFoxxDVhki4qMsSCwwqOC6zTAK2cKdwGGJ/3lNbaLUrgwdFULB9KB0rESABK3XyvpwUkGw+xyMjmd71071xNWDHumcwadDNxxBfuxS4fNLXwdUR+UOsptlHTxHS+a8LyPp6vzQWjD/+6d7zdj5y/Iic4J3KzbQOYCboZD9O41fCJKo7DrZmbIAsBJD2Zt7DrADh6lNi+Sa/jcZJrQnZUud53EZIOYYcmF2BvU4X7hjKBHoIfAUgcAk4Sltc9Yoa/PogfYX8Z5kPIa/qMEH4c+P2xJP1KJhwJIs4Rws9vZmcPLVoVNaDztsG9U2Ti1YM8AxnKsr3e1FzVYtv0iU+TbydmBte7Xwh3CvhH2QKlJ1g2OqcTjDGD3tZGjPdRDGu9GUtpdBttrn8agdk+33gO7C79T5/GwIMuFb3CCxbL7PgMo4LhciQ9zaENrkVOA5GymP8e77roXpy8/WYiIu4CzyWKL630FeYcaAdWa1J3W9AhbdqbwvjqkCiUY4uGpa7jEw2rzZ97kKfrTk9u4i+f4jFWGaRTgmZTaBrK/YpbNyT9x2UHYxavC/K6OU3U6rQDM1SODWQGs5RarO8CtmS2QmRNFJXbjBFFIya8C+QRLi2dVlSPsgXcIy/hhoCuA7UxiAJdyIodTlrIcTj3a828+8qjcazqYVxE6Iti7yniJDkm0Ympzu1HgTXnctTisALZb1gWqLVQNvtBaSn9anFr7VgN18hRTPwYCYBfPWrax3D3r7ilQOc1hiAUtifIiS+H/C2BoPUHYOVYSJW2EpZwZmACYxQ0OjkEK0d6Dy+jFFDOqhfeNNPjvEqgttzYIYLRWGOjGjwDIZQYPcRXncBxH05jz6cMHRuFBgzGdfEg4aBexuOV6YXwEQB+Hh86JgQB4LrCB52Kh86w+vuV1QUEz7bDksX1f2gs7x7hIBUA1sRuzIATAQi4W+ZlpaOzX0uRw9TyDdEeLPXqmc4s4dsVdgQqAX7glSaSJ4lwjWiPve9lUnU4XGYvm8YQotR7CN/goPgLgGoeHuocuANaG6APkQnGHm28QUSsxaQJvIbOseCbaF6lxysuRCoACYpdnZSwLgFwed7AkP5huRha6K8VrgDSmC9PcynWGbtFOFrhS3G1klRGQAFjDDS49uzDZRiuszVaieuzmXGGesu3gEkIjvp1WglP5FgDp4HhkdFTog0EeceQY3mG0L09+edzCMy73NOA6y+WWtt/vkdZujngLqrrVfLdyBbcKDun3MpSmBhYelegivLODcHhZx78YbPiNTOMMkT1PBQ/TPQnjOY7n2OV4zw7u4MoEYSSTUZxG1sonOwD+iRmi+zbxgXBPoBMxIB0cXRHURtm7U/0jj1PWhwjo6WoGPsCyFrjU4fWyiOt2ueX3kQ3/7T2Y5c+mBQvFd/cWHe2nc58otS20FXhFPZg5dHAZgHdzbQAt+xJthNOLt43yb2ztC7lAdJ98jZxS1gDpwGJykv6eGub3YVGIXsznes/6Onl0TRBNaP/uOMBqiaXbGysirlnpCsSez/1crhA7odifJZwntpA/WnSK1kpo3XI9//P4thPJFtx1rPVTqJfozk7x3cMMvA/bEgBXio52dxm4bP9SOEGoH8CZnycBsJ3fHLYQqnBosch1ofwc0z2HcNzKhS6z3W5Us/g20gFzY8S1Ls2/uLUc+/s4hpvP5eJtmM6igV3CCLGWeSL+wxLBXZlWW3Ui1xluV90m9j1wtKUyyubho/nDYJo3PHXWAOl/LxGJzRogLeIa6UCm63z0eMYzwqPp1u9kOn4Uha3a5EoHzK0R17o0f1srgGk+A3N8wVPCOy90tSmvQltBOr/Rw1eJt4ne+DKLLsHXcaVo42n/Z6TO3uxEXmggPEsYZrjuyRGuPopF/N393dxTHO741yG2AsjjVY7hPra5Coq5Hl1Ij3cZPLr7DNudnwWAnRVADt2Fn2hy7hRuWxV31fi+WmTi2M9FCdad1/jL9Z6KVkwfd/N/nlQLhgm9fFWxojEnC9K+VujmbQ/LmCC6rzTt4yEAvnG4o30kYUKiZQv9OZb3XO4qzC3M4SoPa5Z+zHf4tUiCoNNBC4BtEdd4uCuAN/nRdxqb6S+883yX3yVuyBbwjoVe/ZngrnMstehSXvD03DJh4PSClPRdxoJcIewvpo4SU+YgePfgPtVhPlSFZkYp7iJ/sJhLaOk6UFRlON8Yb5Ntoafj712sub2QCu/ciGs7x/L7OK/xHrBS5pcdzs725WzHUlcWBWa838p3JTH3syUAnjBQ6twfqajzPxloJ3SAMsw45feF67VWFoOI+hggNjga2ZuZQC1zHNgi3/MyYgKNuIE/Xe5qyjcMNzws/5zPHX49LEnc0eBm1kUjrmnpSmWLhbzGM89KmXcJbdQrOvp+bCcQassNdFCckGg9NbWytZLjo8TThPf5H0tk8++fxSXad0X9lnD8vSoOAsA5KtXVRrL2R4fZ5C3M8W1RG/bM9Hlq84SLKlsaVzHT0KVzX8dZdw9L5d8c2sfkj2KW38fG8twd6WGfU8+QRLn9wNK6eolA26qYL3PHPUwx0Jo5kNnC9WgRn2WsLIzOOyzQXtYtWrUXiQAoYySllvKpw69H8Y4lH5vh8Re3cjxjXO6qxCdG1okzedfh19aW/B1KZ8ypIgD8rwB2McpaqVcxUXSfk773KYLnR1grscTe40QL+Uzy8exmA0M7P1wl2mj1upaZyizRfTVoEQcBMNNRS7inkZTq4zLPOJ3vrPjYDJO5nEtbx6NbKMprRvU0yOG3AiLVQHsDZkbE9RveFtDXvrVp9p+bS0i+BVSVqq5PrxYei0qQzMttCIAZvp4Oxy5dZvPwuefSpIQ1wN79vne5Leldx3KJ43x1f+ZzKW85uu1KpwcduZ+nPB8URcEoxtKTux1iKNejtePe/v58w3cOB4AXWNmqkA6Yh0Vct9ITlE2Rzk0PRqbudwwlkpRcYgua7rr6lCMJD2TDxGqBr6c3hNDjmggDjA7znMOrPChaY3QkK3JDTKCuYyiDXwwdItcUuc6dl0BFLmpvoG7B2irxksMbmcUrzXT0d2hjW+ZpoafAeyPufQuF5WzikIbMG+jFVsudxp+iXJPpiQ2IURjLPdd3jm8s8wbqz3/AcFEeDXzl8ZzQAbmfr/AjYY138fUmvr2B7tnk+MpxVmDmp3IRrbjY1a1CbT5h9AGzkqgtgd1YxTUOR5Fm3lM/cNC/Ly7aHXZjqfC+wyOt0zRx/r/5zutHqyXP43vRfcmsxmvFsIcfEeLKMzHBz4eLcpnovjd9mUimgDXAvipozoYb9xoHDfyAY+nn2pht+IEnfPjYjIJch45l1tGdFPOaWSjp4pQQABWEGh1bfUcuyxOLRCmyGNVHWJkwhEMlC+EKt/t6Oifwd7xIOOIM85XLJ0JdqNOseTbyJQDedXRTVt5DmOvtZFOHV1zUugqRxXxuSKmw1LZ4P2ABsER4X91Ia6Ge+G38RotY5XNoOpg5+U4ApAmDQ6Yysjn3fL71lYvUh2hadEHi0/cbrgc63nuBp72qFXTlFEdnE7vngM8ynZaHnAAY5TCkNbOwHfar8L4anrwa2eIEy2+TnNXWyy6LZHBEkqlPPH3tFs/nX90RwpHmFd8TjpeE93WJavq7vxXiEJcl9hMeA8RM41Q6u6pTHc843rOw/EwlVjvoPJe3MDysEu7Gpgl1IqIVAEt852Tf6Z1skZ94w6F0TFe9RfP5VycbbnN5zXdOs12O1E1FUsACYCuPOt5dmo897tbn8Tp1ecD1A7w4388+DsRpkXmM79TzxEY1J0RYB9K8F/jOyb4AkK0piqfUTDt/f4PSDZcvrJwXSQ+Cu0RTGQf6/XiSHo6z/Dq8zXkeDdM3czeDeZDOsdf0CVcAdHIQABN9pz9NOLdvwbMR1UBJsQCY6jsv+64KZSKlaEoNtPl7Fd5CeOR6ujg4jckIm4yLKGPVRNFj8XbQh5GOT7RmCN09e49cRiZDecKKtWH+YLbDbzYiMk9NrP+boF3TI/IJeqbQ92kO02PYfjJH2omH+gzt/hEgVbosGupWWDEuY3D4lXGwJ8JPXH2ldOU1Xx4DJ9KYq30r9OUXnDTbbRwRSmfNFTg+ohpoJRaVm2LYfrKItwV9zQ4Ve2RwSYoLpoAFANzi+qFdwTBfx1e5DKcOjxmEi86/LHWYd5exkP4s8b53VLHfWlsWZeEimyUmXids1e4fOpdaCCQTDE2jUMRIJAAW0cv1uSv5lHK+cl5PH44TeWa8QBQzyZzjuDUGzb6dVUl/s2Eet0u8cdIxkvevL7YCmGIhN/unTzIBkHio34xySMyzhUQQGyBxMIqhAtdv5zDVt8SaR1ta8ZPLXdV4n/GWtVTKMYjpnB6LZt8U6AoAvhTe14j6Eby93ARmooXc7B9vyuwnthj8VwmOGpwW49JlWosEKCbZLuSNnOrqqLYWX3OzT2NpGEcjbuJel8HuLL5nCHezxso730j/GDmfSO4RtYiV9D/iLuGdnbgz9AnIFcI7Z1tQAg0i7oHMj+pmzyuAX8StZ49f8q0AuCbWGoiV+Zdh+PkAacxmkY+5MVbM2csxiF2uef1FX99zuLP50TEPyUpjQ9Kn3/dQohlJU5trpSXTWCb0F7g8dAXAtmIflQ+6piXxBjrX+ht0FJX+5SQt4/6NLY3ZICXzBupPf+bJgLyBprMkht5X973e81BblryBHsj3dBcZQv+Ln7jFtz7DWrJo7OpdvQzZzPRxWHkMH/NFpDavicjx8IsJeY7x3valKp1Dfvc7DNYxNrDv9E7mz3NpkpZZImiT/G6XGx5nRx2CXTAhqhhuhk4Bqd/kP6I0SjCInzjPd1l+oCUXuLqQrscYxnrYrc6gP7OsBVu3SbmABYDJ4PlvQYhyezTlVOGdKz0E5k7cV8tYfodjRXcl8xi0RPCF1kexQ9fYl7AwV8ZHAOBiErYvdRjFBxa8m4+kPne5qqG2YjoDHSJzHfyW3VnIvZb21MMTALa0RCbwl7gdO4T45veI7/zAmpHaMZbfQbYRkcwP1q+CZ5voyG2F0rRPgVJ2i5MAMKuwC5nDIN9eJbfxILUZ4vLBF+Y2FpIlskZowv94wTiaQVgUcqixPyzlscPgqD47tC2HVgarxhes5drI6juUEm4oJosaIDlubYZigytSwsfRcTSMjwAw3TApxC3MpYvvbYQVXEdzV1/c5XmCaS5qXUfyFlOsxNYKiioOegn2nBc/I3ZsW9MhNrTdxe5T4nu/tugE4iSrb9FMNAXZkHSmLzFuaxPqtlz+pauW00wAVPQUdbMKLzONFr5L9i3N6OgaArAhkxiZJOBecfoym8ti7nrOqY7/sJbLAsaJ7+2XNIChTXobBKF53mK+du2dzxXdNTOp+J0usIavSGMdvX1zbMpspXUKc6vaSQCc4XnobMQkXvOtcZHHu9TnQVd3W22ZzYADlndpXMFcsimRAku+5NhUAXxOfGdx3g7cIKUR94nv/VNgliinmkUtsDRhiPnkcYi3MEvw/JUoh8r8H8qFqariJABa+Po0OjGP//NteLOJuzjWVTu2GHczjyv/EVgn8RVvUM31sxwY8xXAbIv5fGwgTk5mQKDvXIK3DCwOXhB63JTPsGxxumsf281XDr99IyqxTfuMeKpCBEtBi61+yAirrywYNiwl08oWzJnMFOQ2lWZUEJmUrSGLAlwQA0OwBQ6lLGO1PbsbtFsOFwQ46XjboCTrKS9MN1uY4h/W1jfvCuvSSbe7jSiNLhbr/xlm05dKHp9OTUOwdjE3ANv/2pU0hnQifBmCFXT4TG24Bz6CYVxDL2b6TOdLGtOD+6ngMnOdzDbXs/6dPMt9YsXIYDnaQXV2meUAES/TW+x4LZ23OIfJgbzzo0Zu5wZacf+xL5XpLI7T5EQNLhTdN9PxMH886wUKzX151ZJVSDGupAzZDOATXmF0ACFyUndOvZE3Ay7HKaJRtQCdyY66yo6yKtGet2LhVobH2eGzLKP3GQSjXwHc5FDSj6y36aVGNbUmEBOku4zKsNLgFCdbnOoiK2uA14W5uX3Kb4hSuc5S/Wful+oKBgpN2VJ5BVCebaIUXwh8VD1X2GfmGeyb+FoBJOcsx8/SfOD9i1utfHZ1Ge158J/H+fulFb0AGOlQWvvOqtOYYlRfay1oc+2ff3/DFutpkHq2Qbr9LMzlcoR5uenwXCJKZbV4K8yJogm3HKdwvXi7MRUFQC9hS7UIXACk85uwLM2iFgDXOCTVi5bM8jAAzxGqzblxPnON815Hn4OO0qIWABXZ7lDiIAxCziTXqNa2WLSeLMRwwzaba3RgaSIAthoooSbeSJkjzOlnQb3InPV9YKEN7kma+jbeoZ3Ap1cqCoCZwnVhGArjDwn7zZCoBUA/h6QuANLJ9LQSGGtlY6EQWfxlcKQ5PKElcNQC4DbHDZhgzH+eNWyvXAZZ0UGpzmTDnHMMZ2TZRqnP9hUZ6kVxPhIH2/cJ08ry2QbHssUlhyUMcHHoknoCoJGwdu8OZWu9tnAKtl5stxyQAHjQIak9mtTleJKdxiJgB/818OOTnErCDY2JSefSUQuAnx1K/VZAHbAkvxq32Hfiw+NkWz/d2Gic62OGuWQbpj/Ks2DrJ85jp8j/ZFXhydYu4bFzYqqwWJTLgHwmAJ4STnRqhnS6+j9h3+kcrQB42iGpivvNKj73sA5YSQ+fM9xafCjI51dHjZNoBcBZjiUPzilbS8NtoN1Ce7Bnb0pNmeShhywkI2ABkMdITwNVP4P6k2qVSDfHtnkOj1qa74Q5VM5XAqAwq0WpTSAsegjbely0AsCpSx64OGnFbA+f+AzPIRkz6M9W1/Q3u1oCRysAJjiUfWMAsav28rynI/T1DDDSTwY4gw886o2Zh+7L9pDPd4Ye4osabqFJnTjUEOqp5LGLLA971XXFp2ZumjCpJgCkmm9dQhMApYShtqRrkoAEwIcOBUtLuCe/zsMHONLY70wamawQpeweqSxKAdDKsfSvB9oFizHVox7VTj6gvUg1swa9HLe4nC8vDumyPeW0lm7iAfUkl2hyB15fGJT+caO4UYcZ1cxl4m9zq6tATDUBICvvJl8nQqa8KmyNe6MUAGOSJrQ9yROHMVSsGrevnskAAzetzZkmSHMazUWpRSkAnHcC2wTcBQ/ndx+2FNsZx520pdZB23jFaUQnBnnQ0tr3Gu7pnbI95zeNC1yFQH1eM9w6yzVy5FzeQKkhj3X0Fn41TY0O3/9raUCNiwCoKvAKkEee78jmppuwstZYLNomD0gAjHBIqoDDibuX/d7lIocRhzNc8AmuFkYJiFYAdHJ8h/khOAA+Rbzp4Dxj/JVZfM1YvmMev3uYABx8fetx+Mj2letiHqB5QjXI2tzsyS3Ka4bl72aY/ioecDTiKsU1TDQSWisom88EwB3CN28ZqgBIY6GwXGdFJwBedkjKOehLO6G2wcF+fJw2Lfo6DLt7jyrNAtJEJQDKuyjQ3hxKN8z0cBgc/LXcsxfZbAu5b+RbXue/DOA+HuUlJrLKY0qbPLzHJ55sawZzDadzJGUpSDlqcRKX8yhfuqp8HnxJXHSklgCQWWssFU8ZbXGfxbVwQAJgkENSbl27OP2FBx37632/lGRvs6NIdfFD45CUUQmAV10OW8Paj7w2diLgD0PHBLYFgL2rj4c3qMKaCEv8nqiMqSQAmgvf/AHCprpwrbxFYKHtSwAk32rY6Liz5swW+lObV8kzqpR0urKA/gd0noZM5G3XA915nMeFLCQVuMJFw/dJx7q3yRCusxZr1wZ/0FJgOZsKTORxD0+tINOSyzdzltCd/IbUrfJroZfsVyaJ7ivGJcEWJN1hlpsciXrScjI5wziUXwb3MusfV8SVGMJ3rsqia7mZBoxOkU5Z30XRbq3gIM4eL3B9bETAMk7LJ8P/X2R6rNVRIQXkPJDtXB4T/7j2kA6eXzM3gtK9YlmIWRcASxyekm61fMXJ9GClYZmO5iM+pyl9mO9qLraLpzmGZ1LGqW1ZRrgYOD1i2Qm0uwjowY4Y1Mw8zmRBvhh4crjKNZRpcp4wiN1mizx6MCXfzf8vETq4GxZJ6UYI1/nNfXqt8iwAnKSifJ82lxepw6PGQ0xrpvCoq8OIsZxIT9amTJcszkiX5vzdIFS6LV7iLFZEXDOfckqKbOC504tRvp6/JTA3IMm4nVfJf8jmztt4J5LSbRYHOr06GgEwz2E3splRHuu5nfpW47oCLKAj51gNmhg0BXiNU10/xS0RlOxrTopwBpjHw7QLbd0T9HThPzztM4VddOalEOv/7lA3HcOiOmeI7vso5BX3XqRBiTKD1FFKd5CMyTeBahr7hVlAR9owx1KpN9CXBhZESuUQm7so77n6cZnAGxF1xt85k8GGh/a2BuQO3BHiOUTXQDeaHrXiUzKH7r7FiHSFnhWBDkwYdBHa0gyLrISTmSe6ryrnRFPAUdZdlRUii7U+ldVyGGpoCJ+YkmQnNIUKRg20FF8KfBfVjvijOd2nBa8XVyCHWyu9TA20CdVZGsi75HK71dbI9KBKbWr1YB7tITXUQKWmVn8IIiAEhzQ6nvMmVUB2APBAIKbTFXhWaJ6d6JrMSVbWPV2SukIIQgDUFIWk6En0FKO/76Cb0ut3LrZadqkAgCOEIULMXJpkWm+NRiwKsP5/8hSZIzUEgNTZwiORfm2HC0fC7Y6x0AMTAGc6hivxIzmPZ5yHDvsbV1iJ2dPc0RWafQHQTrTqGRNKPCLZsPNZ4IP/Jh42stm2KwCgpCer2+TXLIP4VCaU4Vkr7jUOXq087dHfbGoIAKm7teMi/takX9rNUQiAwmxySK6Vz1e/2Gh2s4X7DFzGJecIXnexfrUrAIrzmMjadgHlYrWD2swxWrG/azODqBJAmU0EAKTR09IWS47nwVQqkKdaboEZrsoIqS0ApA6Xp0X+nV0ubLHvoxAAzo3tX1WtMFmsD8hpdOLtDYk/IZsC4HTmCfdiGxA/WjDKx2ZdspXjQCoFVF4zAQBQ29NKdP9rfCCxm/enIJniGMRu1yKu8aVVkgoCoIeFeXU4FBWfiZ4QhQC41dHxmo1ZXFWGucyQv/cQGiQRHYWhEG0JgDq8LfS0kxtg9C//7ZPFD5bmyWPJtLKKsycAAM7he8/vNMXDIar3c6tLhTG9kl/TuYZCPsuRCgLgaws762HxnLDtHo9CANRzTPAeS1XQNGls35V0t+IYuSETxR9JdUF6G10EQE2GGsRKvo+404zHmeXZcdxmPqe3Fc2tIAQApNGKt9lueOQ7VBztyyYNyGaJhzZYyfM0tVKC+AsAadj192PxbTURtuCfFAlCALgdPE7l5KS/raGmo8cgOWl0JvsAF3M7eJIHWO877Uo8QDexGNlBcVd3XGnsSpreRzzPTZxnILYepzepQWXO4mxOo5ZQAWADsxjPOKYkDSFkWwD0FU03pib8f0Xa05qzKe/y/K+MZjTj2RxZO6RzMmdyOqcJvMbuYCqTGMtX1pzMHe1qnw8ww5dlRzXRNuHPbE34//KiSRwsM3ZSEwyNhOofyd73Yocxel9GJDpJcMv6Op53+PU++lurhgxu4fq/A9Jt4Q0GMt/CKUNP7hZ12D28J3AgVcLBi0eeoS5P6gz/eylETepSm9qUoxSlyCCDDDayns1sYgNLmc985oXuXsKfANgzuDagHvWoy2GUoAwl2MZGNrKR3/iZ2cxhaWzaoSB1OYZjOJojKU1xSlCazexiA6tZwTLmMJufQxK+Sj6ltON5+gYqWs2tAEdzFidY2ik+X3gEu+8+tSSUZFVrR6KPaweLwRaQoihJGRZA9NbgqctoDwPy/4nSrmdp+B+onUsFgKLEm9NcPqg2sStxGR73YM26jRuF6be1MPhv83Imr6gAUJSwmeD4QS0JLYChhHQyXeLtJr7GGpjF32bBCcIp2q1UAChKKtDC5ZN6JTYlPcuTj5c5nGuUyxCfw/+3riE1FRUAihIbxqSAG7MajPAwGP9FL2PTmP/5GPx3cH9SfV5FBYCixJDGLqYVOzkz0vIVpz9bPdimDvfglqC4ocnQ/j5YGmlnUgGgKKnGey6f1SqDMJF2SeMqlnsYjCeInD4czL8828P2DjKyj6ICQFGC4igH9we7rxXUiaBcyd1IOF2LBeZeyXjYQ37beZYjtBOpAFCUVKW366e1nGNCLZG7I7nEnujv8uWp5CfjXf8hHKXdRwWAoqQyBQVeE/8wDBfvnaLc6bomSeR381WfIQgbGeW3jueoqV1HBYCipD4nCg5at9IphJJ08BQq71sL2vePiw+Yv6BToGFCFBUAihIqN4hm2QMDVXQ8nvGeTK+uthBysRB/CPb7J3KXbvqoAFCU/Mfboo/sR04MJPcKPOchRtU2HqSElfyvdsxnJo/ShgztJCoAFCV/UkroYXMH91reAClEljh82v5hH2ztwhdgrkM+y1TJUwWAouR3aol97Sylq5V4XpDOlcaunXevRFpafPPLHPPK1q6hAkBR8j9N2GQwBHeisM/B/1Jmexj8/+RGq3Pywi5huY/VjqECQFEOBdoZuVteQX+P7s+qcQ+LPQz+OxlEWcvvfIdjjlO1U6gAUJRDhYsMPeLkMJne1DDYaLqR0R4OfPPI47MAZuNHuqx6MrVLqABQlEOH8z24X8tjEW+QxalUSZhmOc7gRoawwLO7tfm0C+Bd0xjpmOtvxh5FFRUAihI5BT0/OYp2vG8cDKYGNbgCgO38xnJ2AX9RnPKUp4LPbZsNPMAgdgRQS1m0dfz9cXZqV1IU5dCiAQutBUj3d+XwIpUDessmLttda2IVE01XALoCUJSQqMCXMRj+v6JxYG9Y2fUYupd2AxUAinJoUoiB5EQ4+P/G5RacPCSjpKsLvPk+1VwVFQCKktI0j2graAvZlpw8JKYwn7mW4QJtfhUAinJoU4bhHnzz+7lyeZNqgb5TMT5yLcUYbXoVAIqSqtjcPGnBUwE5gTuY6WQxOdAcyvIxLVzuWc9xLNVOFBOOo67grnGs1apSlCAowI0Ch8n+r3st+RhKTjVmCcrRTZtcURRlL8Xpxe8BC4A1nB/oO5zPn4JSjNLGVhRFOZCi3GgcO9f0BOChgLRvCvKw6DRjMRW0oRVFURLTnFfYHKAQmM2p1svcgh+E+kcNtYEVRVGcyKADwz0FcpHZ/w5O4lXIC5V4WazJ1FmbVlEURUJBWtCXj1gtHtqXiYfizTxiYTOmMgPZKC7dPdqkiqKkPmkh51eDY6hNHapTjrKU/Sd8/C5Ws5IVrGQes/mJddzEU+LSbeINnmOmxzI14Dq6GQSwfJIs7TiKoihBcouhadnXZFHdKIcq9GK64bbTsNCFpqIoyiHIrR7OBabzKB043DHdw2jPIH7yYLv8ooZ+VxQlvxD32WwfBnos40oWspjFbGIdW4GSlKQMh1GP2pTxWJqH6UeedhpFUZRwuMow+GRwEQf6aGMoiqKEy5kG2kNBXWs5TxtCURQlfI7g60iH/x+opY2gKIoSDYXJZmckg38uz5KhDaAoihIlJ/Bd6MP/Ys7WilcURYmeQtzNttAG/x08EWi8MUVRFMWIerwfSuyxj0XhRRRFUZRQacTIQAf/ybrxoyiKEl+a8ik5AWj7fxiAk2lFURTFMtXpz6/WBv/lPEIdrVRFUZRUIZ3WvO4z4sAaXudc9fKjKMqhRX7xbFmAxrSiFc3/cTAtYRszGMsYppKjXUFRFBUAqU1xTqAedahDPWpSMMEdm1nCEhYzg++YzU7tAoqiqADIj+9WnnKUpAjFyWU929jKOtZqoyuKogD8P4tFNffu3JHmAAAAJXRFWHRkYXRlOmNyZWF0ZQAyMDI0LTA3LTAzVDAyOjIwOjEyKzAwOjAwUM7XdgAAACV0RVh0ZGF0ZTptb2RpZnkAMjAyNC0wNy0wM1QwMjoyMDoxMiswMDowMCGTb8oAAAAASUVORK5CYII=;" vertex="1" parent="1">
          <mxGeometry x="73.25" y="130" width="73.5" height="20" as="geometry" />
        </mxCell>
        <mxCell id="cYbpTIdxBDw8iZ4d2G3q-156" value="" style="shape=image;verticalLabelPosition=bottom;labelBackgroundColor=default;verticalAlign=top;aspect=fixed;imageAspect=0;image=data:image/png,iVBORw0KGgoAAAANSUhEUgAAAwAAAADTCAYAAAA2w3SSAAAACXBIWXMAAA7EAAAOxAGVKw4bAAAgAElEQVR4nOy9f5xdVXX3/2acjtM4zZOm6dzc23Q6jWlMY07E4xEREREREfE3BURBK1VERKRIMd88PHwpX4pUESkiovyQCooKCAgUERAxxkiPx5gT0zTGOE3TO/E+4zSdTsdxvI7fP9Y+mckwP+69Z+9zz51Z79drXglk7j773nvO3mutvdZnHcY8J/C9NqALaAPGgeEwisebOytFURRFURRFaQ6HNXsCrgh8bzFwpPn5I6AdqAI/AyJgcxjFw82boaIoiqIoiqJkz7x0AALfOxzYgBj/K5Dof8IYsB/YDFwaRvHu7GeoKIqiKIqiKM1hXjkAge91AMcAXwWW1PCSPuAS4N4wiqsOp6YoiqIoiqIouaBt7l9pDUyu/zHA9dRm/AP0AlcAvqNpKYqiKIqiKEquaG/2BCzSDZwDrK7zdauRU4C3Wp/RHJgTiyOA44A/RByynwNbgSfDKB7Kek6KoiiKoijK/GZepAAFvgdwInAPsKiBIQ4Ap4VR/KjNec1E4HtdyHwvQE4fOpg4jRlHipUrwEbgYWAwjOIspqYoiqIoiqLMc+ZLClAb8FoaM/4xr3uFvenMjDH+PwjcBhxtrt2OvIc28/dOoAe4EbgK6DVOjqIoiqIoiqKkYr44AJAuj78DWGukQ50R+F478G7gYqQ3wVx0AWeZ359P6VqKoiiKoihKk5hPDkAtBvVsrAbW2JjIdJgi5eOAC6m9SBnkNOCvzGsVRVEURVEUJRXzyQEYSfn6FcBKGxOZgS7gPYjyUL10AOcHvtdoipOiKIqiKIqiAPPLAUjb0Gsx8OdGmccFRwMnpXj9OmC9pbkoiqIoiqIoC5T54gCMA982f6bhaGBp+ukcSuB7y5DOxGki+IupX+JUURRFURRFUQ5hXjgARiJzK1BOOdThWHYATO7/GaRvNtZOOgdCURRFURRFUeaHA2AYAHamHGMp9rsCrwBehxrviqIoiqIoSg6Ybw7AdgvjvMbCGMDB6P9RSLfftAwDeyyMoyiKoiiKoixg5o0DEEbxCPAjpKtvGo4yzbpssBR4J/XJfs7EXuBpC+MoiqIoiqIoC5h54wAYtgOVlGN0I7UANliLFBbb4P4witM6N4qiKIqiKMoCZ745ADtJXwjcARyZdiKB7wG8nfQNykAKnD9rYRxFURRFURRlgTOvHIAwioeBb5FODrQDeEnge50pp9MLvCXlGCApTdeQPrVJURRFURRFUWhPO0Dge+1I2sxaxHiuArvDKG5WwepmC2OsND87UozxBuxE/58AHgujOG2PA0VRFEVRFEVp3AEwHXOPAs5GUma6kBOFcWA48L0QuA3YAgwZrf4s2IREy9Po+a9Amm415AAEvrcYeAWQ9hRhALiH9HUNiqIoiqIoigLAs+p9QeB7lIqFEnAxcB0QIMZ2F/Ac8+dSYB1wGiKBOVgqFv6rVCz8stxf+a2tyU9Hub9SLRULLwXWpBjm2cAPSsXC9xuZb6lYeBHwXuAPUswB4DHgqjCKf5VyHEVRFEVRFEUBGqsBWAxcAfw1c6e4dAAnALcDNwBvMtr4rnk85evbAQ95r3VhUqIOB3pSzgHgdlPXoCiKoiiKoihWqCsFyCjbvBs4g/rSW5YhBbHHAK8LfO8aYBdQdZQaFCJpQGn099eb19dbfLsYeBnp03/6gEdSjqEoiqIoiqIoh1BvNH4FcD6NGbdtSLHwuxGlnquAlY5OBPaTvivwahpzIJYCx6a8NsCNwIiFcRRFURRFURTlIPUa3ycDyy1ctxv4MGLknmKx827CIOkUfEDSm1Y28Lo1QCnltcvAUynHUBRFURRFUZRnULMDYNJ/Xkz61JbJHA9cD1wZ+F63uYYNhoGfIJKkaXhJA695VcprAjwN9GWonKQoiqIoiqIsEOo5AViC5PLbTNlJ0oI+iKQFnRj43qK0gxrN/J2kl88MGnjNUSmvOQo8Hkbx/pTjKIqiKIqiKMozyFMn4LXA54D3B76Xpng3oQ/R0U/Dqnp+OfC9bqR2IA37SZ++pCiKoiiKoijTUo8DMISk1rhkBbARSQlK6wTsJb0DsCzwvXoaiq1HpE/TUEEdAEVRFEVRFMURNTsAJq3me7hXplkCvA/4auB7vtHVb4QhYDfSmTjtfGplPSm6KyNz3YScAiiKoiiKoiiKdepNAXqE9FH1WmhDpDRvBI5sZABTQPuvpHMARsMo3lPH7z+P9A7AP2vxr6IoiqIoiuKKeh2APcAtLiYyDe3AEcC1ge+tb3CMraRTAqo5FccUL/eQvq4iTPl6RVEURVEURZmRuoxVkwb0KeAuRK0mCwLg9sD3jm0gHehJxGlphCrw5Tp+v5t0nYdBaix2pxxDURRFURRFUWak7mh1GMWDwAbg88AB2xOagcOBa6hTYtM4LNfQWPHy08ADdfz+MmBxA9eZzBZN/1EURVEURVFc0lC6ShjFfcClwAXAdpsTmgUfSQfqqfN19wH3Ul8qUB9wNdKRt1baSZ/+U8/1FEVRFEVRFKVuGjZYwygeAO4AXgm8E4mYu5YJPRy4PvC9Uh2vGQQuAW42f5+NKtJA7BzgwTCK63EaDpD+/X8/5esVRVEURVEUZVaelebF5f7Kb8v9lZFyf+VHpWLhPuAXSBpMIe3YM3AYUAT+vVQsbC33V+ZU+Cn3Vyj3V4ZLxcI3gX5gEfAc8+dh5teqyEnG/cCGMIq/W+6v/LaeiZWKhVHgeGBNPa+bxDDwqXJ/pa/B1yuKoiiKoijKnFgz0sv9lZFSsRACTwH/gSj4dNoafxLPRgz2x8v9lf+pY36/KRUL24BvI8XB3wZ+iOT53wbcCnw5jOK9jUyq3F8ZKxULf4g4AY18rpuAW8v9laFGrq8oiqIoiqIotXDY3L9SP0atZy1wGWIQpy2OnUoZeHUYxQ13zA18rw3J2x8HqjaKb0334oeos1gZSR+6ALjDFC4riqIoiqIoihOcOAAJge8tBk5FVINWWh7+xWEU504zP/C9Y4DPAatrfEkVkVa9LIxijf4riqIoiqIoTkmrWjMrxqC9GTgPSQ1aCNHtLYjDs4O53+8YIqd6tRr/iqIoiqIoSha4KNQ9hHJ/hVKxsAfJuV8EeBauWwU+V+6v9Kedn21MrcFPgEeA30GKlsfNz2+QBmoHgBj4MHBjGMW/aNJ0FUVRFEVRlAWG0xSgqQS+1wlcC5yCNM5qlJ3A68MoznXXXFNnsAIpiO5FTlyGEcWhLWEUjzVvdoqiKIqiKMpCJFMHACDwvaXA+4CLgKUNDnMzcJGmzSiKoiiKoihKfTitAZiOMIoHgU8CVwIjDQzRB9wDqPGvKIqiKIqiKHXivAZgOsr9lV+X+yvfM7r565Fc+VoYAT6BymUqiqIoiqIoSkM0xQFIKBULP0QKg9cwd9OwYeAG4BNhFP/S9dwURVEURVEUZT7S3uTrV5BmYd8FNgKrgA4m5lVFVHO2AtcDjy7UvH/TXK0T+Xy6kZOTFcDzmL7RWh/w78AupGh6CJEdHbXR9ExRFEVRFEVpTTIvAp4JoxB0DGLY/qn53/8OPA1sDqN4tFlzaxZGRagbcYwC4OWAD/RQX/3GOOZzBL4PbAqjuGx3toqiKIqiKEorkBsHQDmUwPdWIF2UX4E4Rb2Whh5DehR8GXhwoZ6oKIqiKIqiLFTUAcgRJuK/HDH8zwRWA10OLjWONCPbBJwPlMMorjq4jqIoiqIoipIz1AHIAZMM/xOBS7EX7a+F3cBVwN16GqAoiqIoijL/aaoKkHLQ+D8C+FskGt+d8RSWAi8FlpaKhU3l/sqvM76+oiiKoiiKkiHqADQRo+zzZuAmxAmYSwrVFc8BXgg8p1QsfFedAEVRFEVRlPlL5ilAge+BaP93Mb18ZcIYov0/HEbxWAZTywzzGSxDIv4fYvbPIUtGgU8Dl2s6kKIoiqIoyvzEuQNgjN0lwFpgJfB8JO1kCZL3PpOc5TAwCAwA/xcoA/uQnPVyK8uCBr63BMm7P4P8GP8JA0gdws1aGKwoiqIoijL/cOIAGKO/E9Gs/wvgaCaM/qUNDFnFnAYg6jVlYDvwOKJvP4go25D3Jlfms7kKifw3K+VnLvqAV4ZR3NfkeSiKoiiKoiiWseoAmGZeK4ETgLOBdTbHn4ExxBl4BPgOsBc5ITiQwbXrwnw+7wMuJ3+R/6k8AJypqUCKoiiKoijzC2sOQOB7qxHt+jcBa4B2W2PXwSiwCwiB7wFbgSiM4vEmzOUQjNrPicB1SGffvDMIXBBG8R3NnoiiKIqiKIpij9QOgIlqnwxchKT8dKQd0xJDSKrQVuAh4OEwigebNRnT2fdryGc0U91DnhgH7gPOC6N4f7MnoyiKoiiKotghlQMQ+N4qpGD0VPKbzw5izA4iaS1fQk4J9melLhT43lLgNuANWVzPIsNIKtfdeThFURRFURRFUdLTUB+AwPfaSsXCi4GPA2+hOek+9XAYIj36QuAURHO/u1QsVEvFwkC5v+JM7cackFwIvIv8f05T6QD+G/im9gZQFEVRFEWZH9TtAJhc9mOATwBH0RrpLJP5HaAXUSY6DnhBqVj4Zbm/8lPbFzKf1auRU5I/sD1+RhSAW8r9lZFmT0RRFEVRFEVJTyMR6aOB24Eey3PJmk5gNVKQe3rge9uRNJ3HgL2W+gysAa7GzWc1zkSvhGGkADqhHZFc7SG9g1ZC6hYeTTmOkiMC3+sA2rLqp2Gc4U5mXnPGWrm3R4J5n12z/EoVGNWUuvoxndMX1fCr48j9NK8aSLog8L1FZHQ/mtPwdqbfk8bNPLT3jDIvmCSH34GsW1Pv+1FExXKkWftBXTUAge+tQYzkI91MJxdsRWoFHgeebtQoMQvrDUjqj232I47Kd5D59oVRXJly7fXABkR5KG1h9t+HUXxJyjGUJmIM/hWIQ9cL/BnwH2EUf9bRtXrM9Zaaay4CisxcKzQE/BwYQZrRlYEKcm/n0igwz1nyeS5H3usi4E9medkwE+9zEOlrUkHe70Be32sWGOdpGfKZLkY+z07z35i//3ENQ40j99B/IRtsBfmcDyBrZ2U+OJuNEPjecuR+LTHxOX82jOIBy9fpnHKdbuAPzfWmcwCqHPr8J8/FvjCK99mcm6K4wgQpVpmfHuCPkHWsh2cGv5L7/N+Re30vsBOpT81kH6jZAQh8rxv4GNK9ttVy2etlDPkyNgM3AWG90aTA994BXI9E4m1RBR40426dTdXIeJ9rgBuBY1Ne9+Ewil+XcgwlQ4wxtRa5BzwgQBaipYixuhjYEkbxSy1e7ygkPfDFyKa/DImGL6X2NWMMcQYGOVTJ69vA5mYbboHvdSGf5asQJzt5n0uQ91rr+6wi728E2QQGEeP0h0hzw6fDKB62OvmcYTbL1cjn+ALz96XI59mJfJ4dNNY8MqGKfL4jHOp0bQV+gHzW5fl4ImM+3xLSj2c98OeIUd7NxFrQh/R72WLheh3mOicAL59ynXr63gwhjnKyDvQhz8XmMIo3p52nLSYFVWo5lXLNGLDHtuFo7L5um2OmYDivzUkD31sGHA+8EVnHliPrWK3B1xEmAkF7gH9GxFfKc1y3E8nKWTbpf4dhFO+u5aI1OQDmIh8GNpJvtR/bJGk2IfA54EnmiNIZw/tIxHFYb3EufcCVwF3IgzDnC4xR9hbECVg2x6/Pxk7gBXqkni/Mc9llfhYBhyOb/DrkHkwM0uRnKsNhFP9eiusvQSIdb0SUwFYgC57tAEEV2eAGgH9EZH13245aTocxorqR93kacqK2HDfvE+R9Js7BE8h7TYzUlq7DMc7TciSl8FVIYKLE7PeoK6pM3Fc7gfuRz3s3MNgqDoG5P7sm/fQgIhcvQtaDxPlOfqZG38vAuWEUP9DAtUEM+15ECvxMJtYAm3Lg40x8V7sROe0HgV3NdJKNtPcXkIBAs9kFvHZyJoANAt/7CHAx+ZB3fzKM4tc3exLwjHv/POAkJgz+tGnXyf0+hKz9dzJhex60wYx99z4kMD/5mueFUXxrLReqdcH1gXNYWMY/yIe6GCkWPg7pNvxQ4HuPATtnMMKXAOci0Vdb7AfOD6P4wXpeFEbxuJlrhXQOwCJkYd+TYgwlJcaASlJrSkgaz1rEOF1J/ZGorsD3ltVrSAe+txiJOvwFIm2bJkJbC4nx0gP8b2TRezLwvduBTS66fhvDqhd5f29EjKos1r/EeFqEnLaegRioDwS+9zgSBW2ZkwGzUS5FTodeg0SHVzdzTobknupEvtsjkJOBx4D7A997khyeDJi0s2VMpNf0IE7/GmQdqHedT2rF6p1HJxJkOA1p/rm83jHqoI2J5+Jw83MBcEfge/cjJ5nNcI7bkOd0tpqfrJgux9wGv8vESVyzycNJS8JxwFuRAKvtez+535chjsVJiAPwUOB79yInPSBr6mU883Op+T6o1QG4CDE6FjonIikOO4BHAt+7LYziqUbxm7ArjXoAKSR+uJEXh1F8IPC93aR3SOZ72lfuMP0j1iAG0wuQDX45EpFehp0FcRUSWa91Tj6y+R6HGCDNUAFbhsj5Hg08GvjeNWEUb7MxsDFYVwJ/ibxHn+YHPpJ74HRgU+B7N+QpFWImTIrEMcD5GOll8q0atwS5r44DIiTy9vlmTsgY/CsRo/dFiOG/jIkUg5ly6mulE8nNr3U+bcj9eC6yHzarq/1S4P2Ig/5I4HtX5zU9RJk/mFPvs5A9sJfs1rNjkTX0zcB1RrRmI+kCu3MbdYHvnYgsiIqwCDnyWw+cFfjeg0i6zx5kUb4UexGBUeBWZBNKE4lqWgdkZXaMwZnkyS9F7q2XIGk8q5hINXGVcrIGmDX/12z63UiazyXIfZ4HQ245EiE/LvC9y4GvAEO1pMdNxbzHpch7TAIeeYh6JbQhkdrTgeNNJOgGYEcOo9RtyPp4EZIaktZIzZqlSD7vkYHvvRI5Yt/psjDPOEvLzLVXI8//qxDjP4nAulgD2oDewPeWzHaSZtapZYioxUXm780OCiWndH8FHBv43tVI9/oDjawBijIT5v4/HBFWOZnmnEYsQqL+a5HA8ApSrquzPsDG2zmb+gp4FgqJ0sn7kajRV5AvxKbk52PAdRZSHGwWIit2aUNOja5A7p+sN9XS3L/CUYjhfwL5MopBPq8VwLVIhPRjge/tqccAMMbXiUia4/Hk7z1OJnHG3oecgFwW+N7DzS6OTjAR65OBqxDjtZXpQqJ965D3c7fDa60FrkGetaxPnBL1qmn3GZMOdySSC34SzTf8p9KOBDKuQ4InlyFpr4piiwCRv7eZ2t0oS7Bk0831IPvIG3cRvdmHRB77kOKef2VCKrCDCXm9XvLfc6AbcQTA3md1ALg8jOK9aQYxaSStvhHPZ9oQA7a3Sdd/3kz/YDb+kxDnxGZBuwu6kOhkkr4zq3pCglFveD8S6Mj7OjOVdYgiWE/gezc3uzbAGP/vRqJktTiWrYIPXBv43kgYxQ2lYtbAMiTy34x0s0QVbKZn5nQk3WA1+T7JWYycBiwKfO8yTQlSbBD43hGIc54H498qMzoApsjnFdjbFMeRVJQHEE9qFyJ9lFQ1jyKLS/ukP5Njz27EEXkhEvVazoTySV4WJJvzGEUUfyILY60nZZ6YYcHqk89zegPfa5+a3mAKfd9Na9X/dCIR/NsC3zsPUQqa9hdNmoqPpOwdT74KzOqhhCkEC3zvU2EUDzVjEuYU5b3I5+miKHwECRY9gEjkbWNi7wDJj10LvAz5XpdgN1K9Arje7IsPzLN+Dcl+epBJxdvvQhw6G3tIFrQjaYGLA9/bwMxiHTYYQE5F1iG9P3oQO2URE8XBeTstqZc7gR8h6ajPQwJVq5h4j53kxwazinkGfCZO5tIwigR1R5F1bBD57FYijmui4pXpZznbzbkUKeCyMaFRpIr5GuCxWR7IcQ5d1BP2Iwt+stGsQr6QlyOL/krcK5FkRRXZ5O6wlNubbIZpGJqm2FmZHyxGDICDzXaM2tBG4EPkOx1mOtqQmqUrEOflGVFNc7JxMlJcnwdFmrQsQZyAscD3Ptkk4/QY4HLcpIvuRaSMb51F5vDgSWnge8cCb0MKRG0qdKxEnou9ge+F8yjPfAXQHfgek97TMuSeejet5xy3I2mVi6jjNLBejPLQU+YHOEQ9zEfSkQIkd7wl06jDKN6FBGsPYoJD65h4jz6yjra6szOVJcg+cnSKMUaQQO5DiJDLrsnpmiYQlUj3vhop9l1JRo7AbF/YEuSLtcHdyGLSl3bRNDqoO4Adge/dwYQE4iuRSN5qWs9omcw+4BYs5DCaI/k/J/2xcqo0JCXXdCFR5H1wcHH/IPAB6n+OhpEGS2UkypHQgRhiSRfS3hTzrYXEANgd+N7lkw1is0GfipywpZnHNuQz60Ped0I3E/KMWaZMdAAXAtsRueLMMM2CNuDGyEmirA/UWucQRvGTge9FwD8heeE2U7t8xAl4K+mEGfJGUlA4boJsl9K48d+HrANJB+aEHsSu6DU/rtOdTgA2Br630YVU8HSYtWY3svbcjbzP4xHn2KVUamaYU8bNwObA925Fsgz+gsb2jDxzFnIPNcow8EngNsT2fcZ6Yf5fH9AX+N59iLNxNhMOrFNmcwB87CzoWxANe+sPoNkQthtJpMcQtYZ1yAd4FBPFTa3COFJM/KSl6H8JO0bIdy3MRZmecWTDmJxb3IFsHIs4VBfeRYSlA3NCZIr+L0IcgFqfmyHEGL4TMTyTtL7Jxlqia5zorvcgm+KbmVA5sW0odyInGN8KfO+JMIqT08MzmCi4rodRROnry0gTov3m/yWNuxI6Jv2UkNOIv0CeQ9dHvMuBiwLf28WEVrRTTATrFNw0QxpFJETvrfdUI4ziocD3HkDuxxuxWwd1EnBS4HsPWvyMB5BGZJNTbVYz8dwna4ArA+vP4GAA4FJMLn2Nr60iKQ0PA19FnNBhnvlsdDLxXpYgp0ZvRGyNerqF18NZwM8D3/t41r0CzB6+xxjJ+5HAXqukUtWE+Uy3GBvs59hVQWwKJvUnkS9u9J4cRYIit9Z634VRPGb6j0SIzXUVjk+OZuwEbCS1/ibl+PuQNuNPphynLsym1Isoe7weOYLLuwY1yFHbS2w5S4HvHYcYZmkiD1XgZWEUP21jTkrtmHzjFcgp12uR48E12DUChhCj/y7klO6DNY5fRZz7a4GGVGjMCdVJSDOhk3DjrD+NGOBlJJ/5aupLF6wiJ45fAj7TyLNpHI+TmQhMuFTlqgIfBa7MQhnIFFHfhPQ+sUkV+DSwMU1xsznxOR1JP+22NDeQlNa3hVG83+KYz8DcO8kacCSS9pp0+bbJfUi6zAeRE5daxz9gXntjI3uE+X4ORxS4TsJN8XgFOR27q1mSueZ7/CASfHBx8rETeKXr+3E2zFpwNeJ0uXDmngij+FUOxj0E8z6uQ9aNRmzGKvBZ4OI0Tmfge2chJ9X1BqveE0bxzbX84rNm+odSsXAukj7SKOPIpvmFcn/lVynGqZtyf+W35f7Kf5b7K/9cKha+iXhUPwf+mPzm4o0hm52VBj/GCToOuYlndPRqYA/w9+X+yi9tzEupnXJ/pVrurwyW+yu7S8XCE8D3kMjai5nl2a2TZyGb+BHIEe6za3jNCHAP8JEwir9d7q80lHNe7q/8utxf2VEqFr4N/DcSRba9Of4v5P2tRBbTmpseIWvYNxAH6Z5GF/Nyf+U3pWLhX5AI7/8gR+bPaWSsGmhDjKivl/srzvt/lIqFdUjxr+3I5nZEBe3f0gxS7q+Ml4qFPsSAXk+6tXAyXcC/lvsrTo9Zyv2V35i97Kfl/sq3S8XCt4BfIEazzXuoityblwC/X+NrBoH/B5Gq/kkjFy33V8bL/ZWyWQN+hpx6/CH2vieQz+nPgHvK/ZX/sThuzZg1YIQJERPbDAC3l/srTVMCK/dXRkrFQhXJZXdxCvCzcn/lHx2MexBjN70acRgbfb72AH8H7C73N57JXSoWfoKcJLwE6chcK18v91dqEpCZzbtJW1RbAb6JRBibRhjFlTCKH0SOpl6DHMtsR4yYvDCOpE/YlJjrBF5K+lOPLRyazqE0gTCKx8IojpBc0gcsDp3kxH+A2ozvUSS6cSESGU+NKez8B+QZta3f3YUYNddS38ZbRSKbZwNh2sLaMIox0bl/AN7DDJrrlliJnH5mwXLsy6eOIqkkVro7m5zlG7H7mS8FXmNkljMjjOJ9yMnIx7C7t65GUg5qPSUZRLqh3hpGcc2dxGfCfEd3I8/bzrTjTcM64Dxj4DWLXVi6p3PME7R2zWAncmKcJqARAtss1LuOII1g/xFHKowuH4YBZpHhy5owikfCKN4RRvFHEam49yC5vGWaX8zVB1wbRrFNtYJO0ktXjSO5aOoA5ASzKFzOJNUeCyRybnNRBb4IXGIca2vPjXlfn0HSkGwbx/U2TqkitTjnhFG838H7fARJBXDlBLQB7zFpB67pxH7q1j7g8zbVjEx6is3i6DYkmpt5j5VJhsFj2Nu7Oqg96NcHnIek1Eyn2tcQYRRXwygOgXdid30D+b7ejZycNAXzvf2IfAUfrWLSDp+a8xfzSy/p0hnHELvXytpu0h83IIFY67h0AMbI6Y0eRvFQGMVfBM5Ecg8/gxTpNIMqkn9tJfVnEsuRY+80DCCyVc12kJRD2Yds/lmzGcktt7bpT8YYfF8EHnUxfo2MI+/zKhuRzekwn98dyImfK8nOHvLfvG0mHjSRbtt81fJ4PcC6ZkSVwygeRNLTsg7ODCP1FPc5lJvdZq5hO3tgOfBOU3vULPYy/wNqP2r2BFJwCunSUKtIip41jFN1BQ5sVJcLV6IvnlvCKD5g0oM2IEWWf4t8yFnqaG8HrnFgVB1F+kKcPTjSUFZSMYQ0Q3JiiM/AXmRT7nN5EZMKcBXifDaDA0gRpJX0plmoIKogrgIPi4DXG0WLVmIY+IKjsXdgdz1rR5plNiutJCc6Q5AAACAASURBVFHdyopxxHH9vMsCc7MXfgXYZHnodoyQQhOfi/1ku243g5ZMATKOvPMi4wbZjDx7Vu+d2RautF9iD3C0qfLPNeZEYGsYxZch3YY3IIuPa+3gCnCRiebY5kUWxtiJ/aNYJSXmRGYX2Tlno8ji82hGp0E7gZvJvvv0GHBZGMVPu36fpibgCdxp9ncghd2uRQ/GsLspPYbI4rrgAKJPb5OjaVIDpDCK95JtgGYLcGkaVaZaMemwNyC1BjZZj0iPNkuvvsL8dwCaVoicknWk71HThgM1O/PM3YblGpLZHICGqvon0YHofLdUp01TqPcJJD3oQqSoxUW0YxQxclzJa65N+foR4MdZLPZKQ5TJLkq+B/hCFrKScPDI8yEcnzZMw5NI5DFLbsKdQdCN+6ZrB7BXuD2GNO9yFdUexX50Mmlu1SyyKiodwH4h9Vw8iX2HDaRDdF7VAOcDLXkCgKRMpzXeO4HnGQlv2+xC1Pes7RezOQA2ojA+cHErnAJMJozi8TCK+4DPIwVJZzKRr2sjMjiOLG43uTCwzc2XVk95CElPUvLJENlFWm5hSjv4DNiGyPdmxSBwO9mnHu1EVCNc4EKhZyoV7J0SbgU2OcwtHwFSyYpOQ9K0r1lkcQKQqNQ96PC7eQamaPZLDoZeh/RSaAYHyP5kM2tyWftZAyuwI0O9BlhlO83MPHufwaKDNZsDkLTyTkM70nznetMuvqUwx/T7wii+G3gdUidwBxIRTcMeYIM5wnXBStLfyEmHVyWfDJKNxO5eJOc300JwUwvwENm8x3HkpC+rFKfJjAJfdzR2N9DruEh1D5IaktaoOYDoyTurvTAb6CD2Vd9cdEGulR9ncI0K0ugry+h/wgPYr5NpB95mecyaMJLH8z0FqFV5LnbSd3zgBBykBppn8HNYWsNm2xgOYC8y9Q7gysD3eluwKA046Aw8hqgGvRNJ39lL/V/EEHB1GMUujjYTukmf41ixLEuqWMREx7JIybmL5uV0biEbB2AEuN+V6s8cVJGTDhfGVTvS/NBZvrNJ1/oS6Y20exFZZte4ODnLtBfAFLJYA0LcparOxQj2i4EBjgx8z0XXYaV16cBOQX87YiPW28G3Vu7DUq+M2d7sINJ51MZxVRfiBHwZCALfo4UdgdEwijch3UHfCnyU2o2UKnKCcLej6SUsJv2N3Kp5fIo9ysDjNC9ilZUKVYVsjM9nYPqk7MNd4WsPDorSphAhuvSNshm4wpz6uMaF4/xHlserB+fdnoE7s0z9mcIoonhmmyVIkbyiuGAdcL4jO3cflprGzmgkGikum4oMncgD9zjSlXN9q9UGTMYoB4VhFG8Eno9IiD7NzJtLFTH8r2jSUWq95KODmzIbZdzmk0bA9mY18zNGh6v8+Mnc1+RnskL6tMKZWIZjxRPzPV2F5KfWY5AOISepp5maq1almd1lXQdq9tDEvhzm3tqJ/VObxcBLLY+pCOO0rhKQLdqA9wEfsV0QbE7/72Hi5HjqT80Bu7kWrm1IdMZmzuRi4ANIwd2HAt9b0+T23KkxdQKXIXmFlyEFvlMLYbYhxn+zGo7Vy3xvVjIf+E/cdbFOIm/Nvl9/4Hj8Ku5y8GvlAO4+527sFLbNikkF2ghcgtRTzLYJDSFr5MVIV+lWlxrOdb+blDxF8/eC/diXo24HVga+12V5XEX2JFcBjVZiEXAu8C4HqkA7EFvzwml+au4aPGsEPozikcD37kS6o9mUzWpHWnKvBk4DHg5876ZWzzkPo3hP4HufQCL9RyFfho9E+Da6LHBzQDOPtZXmcwAIc9AF2vUzs5vsFY4OIYziauB7P0OCBrbTdRaRUYQ6jOLBwPc+j5wcr0XW+OcycQIxgpws7kAMhL05uL9s0EwHYBwx0F05ed+h+Q7AEG5SnZYhDvJCj1Yr7uhBuvh2AR+3NahJl0ydtlpLCs4TyNHuh7G/kSxCFBR85DTgPqROYBuw33beYeB7HYgj0zXppwdZBP6EmfWcR4GfIUbRXvPnsPkZAQaTNAkz5z2B7+1hwhHoQD7HrBglfWT4TYHvfS6M4qYaR0rTGCSb9Ju56MOtgbOFfBgA+3HjAKxwMOaMmPWvL/C9PmZucjberLSyeUjS28BFv51dSApgs520AdyckC1DCrg1Wq2ASAS72GuWISI4HnA50JeDZwqowQEIo5jA924CTkS66LmgDTHMzwLegmzKjwe+twWJQja8QZujl7VIk4fnIwtlLxK16W1w2GHkSHIfkof9o8D3diPGyi5TKAxyM2Vp+CeUSV+42QOcG/heJp0flYZwWZy7x0jWNZsq8pytcjT+j8iHbnXiANimkybkqJv1Lxeb3ALA1ee8D3tN3tIwhBuVrCU0t4mbki/24y7Y1AGcgdhV1wS+96ips20qtRbh7gOuA65GvBmXdAHHA8eY6+4KfO9+pBCpJs/J1BSsQrRYX8dElH8pdjbDLqTZwxrz31UkSjGARL8eN/Pd2SRPr4/0x7YdwKnAN8zNqpt5/kiKgF0UebpQ3miE5Nly4QAMIo5OHhrzVGh+qoWiTGYvOXAAwigeC3zPxbOhDoAyma1IcNfVPdEOHIsEnm8JfO8zTZKePmRCc2IewC8iRvRGxAB2TQfS0Gol4hCMAbsD3/sCUpi8DxgwFdEYRaHlyCnF+Uinvy4cNGOYhuTayxH5pxOBK4Htge99CdEx7svqyw6jeDjwvc2kN5pKiLrHTsSpUPLFCO6if3mpVxnHnRRo4rTngRHcKTo5VQFS5iVjwE/Jx+kYTMzFZjpbkgasKCCp52Xc6fcn9CIFvK8NfO8q4KmMJJCfQc3RcKPy8FlExz7riFk78uCvBz4GfBOpFbgs8L0zAt87EvgQcCfwVcQAX0I2xv90JPM9ApE8fQjphnxG4HsrM1I9+qalcQ4HNjioYlfyTZ4cAFdGSJ4cgAru3mePo3FbisD3VgAvJsOaiBZmFKnDa/Y8ElwFOjpbXYVQsYPJcngoo8u1I/WhXwIuD3zvCFOjmil13fhhFA8ike3H3EynZhYhEf4PAzcAtyGV1seQz8W9GzgdmeudSMGzTVWl6diEvePbNwEnWxpLaQ3yoshVxd1chsim0/CcmJNMV4EV12tNrgl8b0Xgex8EvgC8n/kV9U1S5GwzSg7SfyYxgJuapz9CT8iUCR4k21TMLmRNug34m8D3Mk1JayRCvg84D0kFOp3mGtxttFYe3xLEcfGB9wS+dwNwryP50/3Iac2HSF/30A1cbAqdt+YoKqS4YQfZn/LNxDjuip0HyaaTaq3k5TNvaUxEdzFy1H4OErzoZn4aelXcFMiOka9no64GR3UwH+8JpXF2Ik7AKRleswMRqrkUeHvge9ciCmr7XNde1m0YhlFMGMV7kCYut5KTCFqL0YEUEF8DfC7wveMC37PqSJmUra9iT+LMRzbT+RQ9U6bHhoxsKzCWByWGSbju6jrvCXxvOSJecC3wLaQb5wrmr6Hn6jkdo/lNACezENYjpfmMIlkazUgNTezCG5DUoFMD33MqutNwZNikA12OKAPl6aiwlegATgJuAt7nIC1oG+LN2jBy2hEZq2MtjKXkm33ka8P9ZbMnkBEaTGmAwPcIfK9k0nxuQzbQd9E6J8OKouQAE3F/ConAN2sPTOoDrgeuC3zvKFd1KmkHHUC6m52J5JznKZrWSqxCaituC3yv19aXbfKKb0KOtWywGLjCtVeqNJ28KH+ArCl9DsatooGLlsUY/YsD31uPBKG+Z/48EZF7VhRFaYRBJDvDlt3UKMuQNPuHEMGbXqN2aY1UhqZJBxoLo/hR4K3Ap8lf9LBV6ESaoN0CHG7riw6jeCdSIG2rsGU18C7bN6KiTIfDhlJV4BcOxlUcEvhem0nzeQMSIfsW8DeI0pEqlSmKkgpj125FFCeb3ZslqXP934jy5ek2M0WsHSuYrqGXAu9B0k6UxjgGOcI+OvA9W2M+AtxtaaxFwGlMNEFTFEVxTuB73cAHgc8hgZKz0Gi/oihu+ArwefIhztDGhKz81YHvrbU1qDXCKB5GOuD+JaIUFCGd1ZTaaUeUgr4ArLGUDjSMHGk9bWEskN4AJzdDt1ZRlIVD4Htdge+tD3zvcuA7SKrkyTTWkb6K2+Z5iqLMH0aQU4AHyIcTALLu/RVwZ+B7bwl8L5Uoi/XCgjCKx8MoHgyj+NPAa4GLkM696gjUxwokfz+1p2fSKLYjJws2qtvbgbchnY8VRVGskaT5BL53IhK4+A7wf5D0w0bU0sYRNbRbkWaWLmQzFUWZR0xSvLwIexkUNmhHgrBJE7HeRgdy2gHPpAV9FjkRuBBJDdLoS+0cBVwa+F4p7UBhFFeB+5BjLRusRU4qFEVRrGDWuvchaj63A+8lXSOzCvApJDX1AqRmIC/RPEVRck4YxX3ABiSVOk90AB8Arg98L2gkW8R5C2zjRe1CcqneCbwGuAvp7tnsAou804504b3ARrpNGMVDwGXYqW5vR5qZaRt1RVEawqj5dAa+tzLwvauBx5lQ8+lucNgxpKfCx4GXIU0rnzC9URRFUeqlD+mD9Gnylc2SSMl/FTihXnGWzJRcTAR6EHgMeCzwvdVILudrkGhyiQwckmmoIvrbo0x0G0yOiDuR6FPSWXIx2TfC6kBULn6Anej9ALIhfo70BXQ+cizfbLksRVFaDJO/GiAKcmeRLtIPcrrch3RAv90c3yuKoqTCpFHvDXxvI/BT4BIaD1DYpg3pen47sDHwvbtMPe6cNE3KMYziXYHvfRJZrA9HIjXHIUal1a640zCGFChHwL8gHQ+7zJ9lJvLkuxAJpjbEWF6CyM09F3Fa1pF+06qViwPf2x5G8Y40g4RRTOB7TyLpWO8gndPViTQGUwdAUZSaMFGqAEkNPQFZU9MGf8pInu7XgcfMhq0oimKNMIoPBL73D4iNeDFiA+aFbkTyvTPwvZtrOfFsqpa76bpWAR4NfO8ppOi1B4kIfQC7us5J4597gXuA3UikP1GF6EWM+R3mtGJazOa1CHEOliHSTK9D8vUXW57zZA4Hzgl8b2Ot3t0sDCInAEchTcgapRN4ZeB7n9fjdUVRZsOkMa5FFOJOQE590+xB48jJ7ZNIju4eYFiNf0VpKm1IZsC8JIziauB7XwS2AZcja1leepAsR5yAqnECZq13yk0zJ2NAloGyqWq2+YHuRQpgrw6juDzD7/QFvncEYsQPzjLPJGVoyMx3G3CzaU5zEqKRvw75ImymNLUDZwDfDnzvPuM8NYTZIDcFvvcg8KEUc0qOnnrRUwBFUabBGP6rgbcjOv42TnhHEMP/JuBRDUAoSm5oIz8GsROMHbg18L3TgPcj9QEryYdNvQSRLx0OfO8rYRSPzfSLuSvgNHmh51sccisScdowi/GfsAf5EusmjOL9YRTfimxy5yDqR0ONjDULy5D3YuvhusXCGMsRyVJFUZRDCHyvE1HyuR34MHaM/z1IlOs9YRQ/oMa/oijNwKw9n0Jsvi8i6eV5oAup9TxmNqGWXDkApvPtG7CXV7UHOBt4OIzikbl+OYziAaAt8L2GDdowigfCKH4QKRI5DXFAbMrOHQMcb2msHUCYcowSsNJi12JFUVoYo+zTZrpV3oY07/JJHx0bRYQQ3gZ8soaAjqIoilNMhP0pROr+PGAX+ZAaXo04ATPas7lyAJCJno0dNYgdwJlAVGe6zFagx0SuGiaM4qEwih9B6gP+AXvSUe3AJYHvpS4+Np/LPRbm88fM8yM/RVFqZjFSw/UN4HTSr+dVZFO9IIzi08Ioflqj/oqSW3qaPYGsmdQA92bgVcBHkTWrmX2v2hCRlitmkgfNjQNgjimOQopd0zIAXAWEDRSEJcXCVtJaTJTqcuSYyNbx0GpEMckGEem91RWoA6AoCx5zenopsv7aWEOrSAOes5FOvoqiPJNErTAPpJUXb2nCKN6H2HznIP2vBmZ9gXveABw93T/k5YYByQ19BXIjp+V64N7Zih9mwkTFy8BiU4+QGtOA62NIEwkbTsBS4DWB79nIp60g8qdp6Eb6FSiKsgAxaT+rgeuQ6L+NtWkc+AyykW6eS9FCUVoEFwZhnvbgBe0AwMEi4acQqdC/QAQLmrV+LQbOm86ezZMD0I3IKaWd0xPA39WS8z8T5rUjWDzKCqN4EHECvkL6G6ENqQNYn3ZeiBTq7pRjLEdPABRlIbMO+DLwFuysBfuQOqpLwigup1E9U5ScsdfBmHmy5dJIi88bJqUFPYk0vH0b4gg0bJs2SBtSO3ri1FrNPN00PulvnD6k4Cz1ZhFG8U5gma1TADNmGXEC0hrcINKbR9Tb+nkaxkivVtRFAwV+ge/1BL7Xa35snPwoipIxge+tRyL/NtI3QeqlrgY+nSaQoygLjLxE3v+k2RPIG2EUj4VRfDfS/PBKJMCRJcuAlyO22kHy5AC8MuXrq8ADwNMWG8Fsw36nt+3ANRbGaQdeTfqj9hFm6Xtgm8D3FgW+d2rge18D7p/08/XA9y4PfK+U1VwURUmHyfnfiESYbPEp4PNq/CvzFFf7bV7kuOdtE7C0hFHcB3wceCfwINmlBbUBRyKOwEHy0LQgKQBOW9S6B7gTe2o7IJHxauB7K0xhR2rCKB4PfO8rSL+AY1MOdzzi9aeN4Ds/XjfNgNYDNwLBDL92NPDewPcuBO5TpQ9FyS9Giexq4FRLQ44jm+LVFrqdz0Segl7KwuTfHI2bWhkwLeYk35UjYi0bYyqB73Uzs+OyF9hrK7AcRvFY4HtPAJuBdyFdzFfgfm06Ajml7Uv+R14Ww+VIDUAadgLbbLaBN3mne4ClxoC1xTCij53WcO9ElJNyjfnsTkKaAc1k/CcsR9IJ3jJbAwtFUZrOqcApFsfrQ579AxbHnMpicmAoKQsaV+kff+Zo3HroxZ2h7rK24DjgOzP8XIQdUYODhFGcNBH7LPAepDYgiyZih2Ta5MXA6iXdacQ48F1HEeMDyNysbRrGsdiM9BxIy6ssjJGWFcD5ge8FUx0lU3SyHsl7W1PjeN2IVzyXs6AoShMIfG8V0vjGVmBkHNkEt9gM4kzGrE09qGCB0lxcOQArHY1bD6uZfw72WhzVVxhb8DGkgdhdLq4xhUNS2vPiAKwgfTpSZGMiUzFf0A5gneWI9G7gIdJXhB9t+XSiERYBHwS+C/wo8L2PBb53dOB7KxFj/ibkIarn81sHXBX43nLrs1UUpWFMk8QLsJvrOwh8zXHefxfwAofjK0ot7MJNtLepDoCxj57P/HMA1gPOahONjbkTOQn4JG5PQI+abMfmxQGwgbNmC+ZkYT8Wj6BMlOsp0s+7CzGum00bEg1cA3wY+CYiC3gjovDUCEcDJ1qZnaIotliPHJnbrCEbwlEQZxLdtEDKpDLvGcOOEuBUekxdTrNYguz/zQ5I2qYbKaB1hkkJGgMuQ5QiXTkBbUxyZuaTA+CaXUC3TVlQJAWoL+UYneTj6G8qnUgKz1tSjNEBXGgijoqiNBkTPToc+/m4Y6RvSDgXR+IwkqcoNVJFagtt00lzFXhWUHuab6vxuiwuYprGfhr4osPLHExnmk8OgOt88aQgeJWtVCBzsvB4ymEWMb8bb6zEbqGhoiSoY1k/XUjdkfUon8tmXyZwc7Gr8RWlDkaRdFnbdGJftrwmjE0UNOv6GXCsSWl2ThjFB5D6qodxrNA4XxyANuBFLi9gUnaSgmCbTau2pHx9B/BHNiaSUxYBr1JFoIWJKSJ3IVfcCfypg3HnO120WHG+aZb4DvJ5UqosMMIoriL9gGyLlnQCL27SXtmBRMnn6z7dDrwhq4uZdKCNSOaJM/LyZQ2R3tMJAt/rtTCXGTEFamVgxdSWyinYnvL1bUjH4vkazUxy1vLS5VDJlnby0+BGke+jx8G4HQ6bAK5BGu/M1zVSaZwSzclZL2O/DqAdudebkea2HOlLNF9pA15r+hxkxU7gKziUB82LA7CH9B3R1gKnZ6CIsx+pcrdVCzBE+jqANNrWw8hi5LwZWAo60M07S/Kk4tAGPKfZk8iIVrjHV+PmRGYxUltgFeNUbECa4MxHFqEnG2lYTHMaou7Bjgz4VFYCaywGKOfEnLBdgPt9oy1jA3wq64HjszphMSniX8X+KcDBWqtcOABhFO8ifQHYIuAc4GSXN7/JUw0ROSUbC8c4YoCnoY0Gv0tzHPkvuGtPboPF6AnAdHTi5hnuISddwhcYrgrobG7Mrpr8LEFS/azdd0YR5RKkhsjlXtfRZPWVXOzjjnG11jUFk+f9fSQAZ5MViNJVlsGEdaQT+6iVNpp7GrwceDPZ2iI7ERl6WwyHUVxJ/iNPD9TTFsboRVrTv8PlSYDxzPaY66VlnPSNQbpI16nuSezeZLbRE4DpKZGvZ9gFibys0jh/0uwJ1EA7cAyWnCDTP+RS4L24v386Sd/JPm90IAZPXuhm/u0BNmTAp9IOvAa7dYozEvjeIiS9Lot7pY3m3wPHAYdndcJiArTfIX2GTMLeyf+RJ+PhHuykoawCbgDuCXzvTYHvrQh8b1nge52Wv7QK0GUegDSMk/59d5EuMldGNsvKXL+o5Irn4OYZztO60I4dR3s6ugPfy4XhFvjeUtxtbjZPc1zIFyYcDpyb5pg/8L2OwPcC4BakOWEWBsMimicv2oGbqGg7+UoFXISbdamZwYXtuOl9cQRwgoNxD8GkwhyDRP+z+BzbcLcX1Mpy4CKyvW/2Yi9F+xDRmTxt9FuxVxSzGDgZ+BrwbeBLiOdm7f0avdZhpPlGnj7HujFNKJ4CzkW+B1vepuIWGx20Zxo3L/d0G+4MkYZT5xywDHfGqs0j6wO4Wx/agb8C3l+vExD4Xnvge6uADwFfB05i9k067anrZBbRvNSEtMGfmcjbyVsRN/PppUlRZZNOfB32n6d24IIM8uVXIPU1LkQBpqMNWSebzYnAmzK8nq307CrSoPUgedn8QN7kow7GXYl0orURaZ/KPvKRhjFiftLyANKO+mbUCcg1Rte8Gzf33mKaf9Sa0I676OoSMjoqrwGXKQ42tbmrpK9Zmo0OJG//ysD31tQSXAl8bw3wEeA2pJPmXOkIA+b3bG2si4HnWRqrXnodjZubtCZzyr4cN8GOpY7GrZWtpJcCn461wLts1tRMxqRYn0e2nbXbgedmeL3ZuCjwvbUZXctWQK6PKaneeSr0GwYeQrRWbXuUO4DdRsvfGmEUjwa+txN52LY1OEw76bv3JacRqQijuBr4XogUntyPNKM4Atngmu3k5FmlqBmswG3e5VrykRK2CHfFscsQI2eno/HroYS7AtvewPcWm1PLtIwgRovLqN9i5CTgJODRwPceQpQwkiBHCTF8X4wYIL2II1eLAzUGfBapexrAzulIO5IXvDyMYtfdjKfyUkfjdgHPD3yvzWWDthpJnlNXY/cwJTc6Q4aB6xGFGZsnnZ2IMk9f4HsPmlzy1Jg06sVIGsz7yNaGbAdW5uSe9IENge9dApRt25YJ5vN+Eentr3FgE1P29GYbdQcxH+AW4DHsRp/HkQ3eSdQqjOIyUgvQ6NGUjcp2a6cbJh1oOIziR4A3Am8H7kCcKGd6tHMwhKQeKBOswm3awSsdjl0PAe5SEVZgNhRH49eEiaa9EHenEZ1Irq4NRmk82FEPHYhh/14kGPEvwL+Zn+8haZ1/DRyJOMK1GP/jiOF/C/I+bBoRPrAuY/nFTiS11QVtyOl5HgqBe3EXBGgDjnU09pwYQ/ZJ4D7sn7r3Ah9DHGlbLEMaVP01tTkso9hVGFxOdilHs9EOnI6cJLqslSkBR5PeVq8A94dRfMh3kRsHAA5KY92I3cjjKPBj08SrYQLfI/C95YHvvSPwvesC37vJ/FyDLP5HNHjc1kP66MYBxEi2ShjFo2EUP4zUBpyNnAg8iH3psrkYxU6K07zAbPwvwW0+5LEmzajZvNnh2J1IBDVtIX9aViCGrKtoWgfwRkvpAKPAD8i3bPBMDCACEX1IMMPmPrMCOJNZHBEjSLHWYlpGQPrT49lYjwQamob5rALcOiKvzqB/0IwYWcbPYbcuJWEV8LHA905Oe98FvtcDXAW8n9pPK+8CNqe57hRK5KfvRTvwbuQkwHrwxtyTpyKn8WkYR1Q2n5r6D89KObB1SsVChYmIlQ0H5RfALeX+SkMFxoHvUSoWFiGL+2eA04CXI4vSi5Bj6GMQJ+D3SsXCT0vFQrVULFTL/bPvLyZa9JfAqxuZm2Ec+HYYxQ+mGGNWyv2VX5f7K/tKxcIPgW8gxdVbEcPpfwGH4fYo8GfA18r9lf92eI2WoVQsrAauxK0D8GzgR6Vi4afl/spvHV5nWgLfaysVC68E/gZ3qTEgEpn/VO6v9Du8xoyY04e3IMfprtbjw5Bn9QelYuHf51qXZqPcX6FULIwiDuifWppfFlSBvwduD6O4WioWEtlRmyH75wH/WSoWflwqFsZLxQKlYuHZpWKhq1QsHI+kerwGeLzcX/mvNBcyqlH/G9mHDks98+n5PWBfqVjYXO6v/MbRNWalVCwsR4xOl6edvwd8r1Qs9KV5NtJQKhbKwG8QW8B2YPYPkJOinlKx8JNSsTBcKhZ+U8t7DXyvvVQsLC0VC6cgBcvHA79bwzXHkZO6jyD2XBobZzJdwM5SsfD9cn/F2gleqVhYh/QLqZc2xPYrmuf+v2zsl2ZfOBa4HCmAT8N/AxvCKH7GyW3uHIByf2W8VCxsB54P/BnpF7d9wLWNLLjGQC8hx2gfQb6IzilzakOMpeXITX4q8MfAolKx8JtSsfDLcn/l19ONXyoWVgF/R7oTgP8B7ir3V/45xRg1Ue6vjJf7KyPl/kp/ub8SloqFO5Dj+X9DIoOLkcXUNj9G3uOvHIzdUhjZyqsRJ9QlXYhxHJWKhUqWToBZ/Hzk2fhz3Bk4IIbxn5aKhafSGmWNUCoWXoREpV03l1kG/CEQlvsrqaL35f7K8/yMkAAAFPhJREFUgVKxsAR4BfA7NibnmFHgi8ClpocLpWLht8j+8iqL12lHUucC5PtchwSMNiApEz1IWkal3F/Z1OhFTFHsB3Hf4+Aw5Pn7brm/knmOvEmr/X+B1zu+1LORPft7pWJhsBlOgLF7foBE7Ndg3zbrQur5zkCCds8pFQu/WyoW2krFwmGlYuHX5f7KbwPfW1QqFn6/VCz8aalYWI8EJz6KRP2X1zGvnyF1At9HnjNbqjltyJrzrXJ/xVpacAoHADMfH3gZMFAqFn5e7q/8stG5mOf7OETUIG0PlyoS9PjkdP/ocmNtGGN4B8ixWNr28NuAlyQLf53z6EC83rOoP01gyFx7F/ATRPN3H5I+044c67wdyc9Lo/4xALw9jGIXCko1YyJS1yMLjG3uCqP4bQ7GbRmMUbwGScN6F9kUXyX5qRvDKHahVDEtge8dA1yBndzHWhhDFLCuALZnUWBm1pYTkHzaI11fz1BFUvg2hFGcqvDZNNr6BpImkmeS93wxU4QgAt97C7LJZq13vwt4RSMFw4HvlZCUzL8iu/z8EAmCPWKpkHxWzFq3EilifTfZpOiNIiqEl4dR7EKbf06M3bMa2UePx+3aN4Skwu1losZuHHEUliAnLj1I4KDeeQwjCkFfNMIixwLfsjJrYRQp5L84jGIrdYmB752O1BWlpYLcR98AHp3cdbeGOYDsBachgWQb6ndPAe8Jo3jXdP+YSwcADub+vRtZeNIs0PeFUdxQHnHge28Avkw6A30cMTCGkBs3KfRZjDxoaQ25PcDLTTFy0zD54t9CHDebjAOfCaP4PMvj5g6z8U3+aUc2v7XIonAisihkma86jmwSjyLN+iImCiirTBSgj9eihGAWucnvL/l7F3Lk+TokNSPrXgRjyIb4MJLitoOJ53Xye6zZOTDvNXm+k/fajijXvB1xABrZYNNQRfqtPIKc3iV9P+p+n4HvnQHcTr7U5CYzjhivZyOO3SH/GPjeesQB8DOe1xjiVH986j9Mc88kP+uR04qTkJOFLGV6xxED8WngTkRNZJCJe6YKB7uW1sw0610HcnJyCpIau5Js32eVibXu68haN8yUtc5lgMB8JmuRWsijXV3HIUNIUOOziXEe+J6PfJ425ZxHgLuRAO0upqxh9aryWHQAMHMYQgK+m5BOvlsRIZrJgi3JfrAeWYOS1PJu7OzxOxAn+omZ7tncOgBw0AC/jXTH47eGUXx2A9fuBP6JJioE1EjDDo5NAt87HPihg6HHgCvCKP7/HIydC8zpSYBseN1IqtlyZKPvIV8NecaQhaWMOJ/9iDGwb646lMD3FiNHm8uRZ/q55u8rkchXnkQJhhFjYBewH/gPJLqzB3h6tkho4Hu9yKLewUSR5p8jG+DhuE/3qYcR5KSyjDhAv0De974wip+c7YXmqPoaJFCTp3sU5D59Ajg3jOK+6X7BrPHXIKk0WToxVSSocf6U+axHjL8eJJVyLXLPrMNtHUy9VBHjZo/5cx+SZ7wD2BFG8Yz1duYz9xHHt4Q8CwXE4V9v/sxLD5JxxHDbhzjN/xd5TvYCT7qSfoSDRnOSAZGndXE29iI563dMjswbvfyvkr6YdTrGEJXHEPgpslYPTPmdUSCcqoAzGcsOwEwkPVSSvWM57ur4dgMXGBGXGclr5MYmU2+GWllH89tO18I9zZ6A4XhH41bJhx69S1Yji30e5M3mogPZlKam5h0Afn+O1/YiG0ErrDtdyIY1ddPqQ5SJts7y2pOQvP5WYBHTpyBtA14wx2tHgGsRB851ykI9JNHBy5Hva1pMH5fbkYhzlk2v+pA0j6mcixSD55125FnunebfLgI+MctrlyHfi6v9wiZJLdLUE6KtiACIs5OAMIqjwPfORjIgjiM/z9ZM7EYa+D0yTVrOCLKHu3AAOhDHcbZUxH3A25BofKOMIkGhNAZ7O9ns8buQE8ZZjX/I/01lg0bVPVaSr6jLdAwgOdpNxRxbvsbR8OM07sQpiuIIEwHdjRS5bicfzfrGEG3ui4A9NURpIyTtKysGgAtnyslVlElsA84B/pHm9eCZiypig5yJZCNMJ9c9jNvu4a4ZR+RMzyU/69x0VBEn51ykr8SctEIkLi2NFhAtIz9HkTNxL/nQ416NO73oJDdbUZScYXJLo8D33oqcBhxPc9bNYURv/CrqSM8wRYqXIie+tuuXJjOOpMxcjuSYK8qsmGdrD/CXge/9ECmsXUk+7LakwepNwOfnKA4fpbUbeT6NpCHvCXwvQk46Tid78YCZGEdOWL4CXFlP4XEebqTZSIo60vDcBl83RH69bpAv/CHk4Wo2R+Gui2kVyetTFCW/7AbONz/vINuUmsQQuTeM4kbkKsvIqcH1uGsyFAKXIgV5tju+KvOfTyOG6JmI8dmsOqJxJKXmQeDOMIrnbPIVRvFw4HtN6bNigQGkc/g+AOMEXITUO56GpE82M1A8igg6fAl4oF61y7ynAO0jvRG+xhQe1Usf+e0+Ow48BmzOQrJwNoxa0wtx5w2rA6AoOSeMYkyx7eXAO5E8aZdr0ziyLvwtshF/ukHjP4m0PoFJG7I2Q2EYkSz8S+AxNf6VRgijuGqkmDcCb0VqXBKFoiwYR7INbjbX30B9HX73M1H82iqMIyk1902uawijeBj5HN6JnMpsI/u0oFFgC+IQngvc3YjUfd5PAA4wIZvZKL2IrGC9x67bkKp2lx0IG6UPuD6M4jzkxq/ErVJB2GwnJwPGEGe3ld9nLYt7ks6V93VnNmoJSiQa263MvkZeZFIBHgl8bzMic/pOpEBvOemVgg6Yee1CJEy/0simNx1mnPsC3wuRRnvH07hE6yhyqrAJuKmWKKlhgNa/b+ZaB5KATp/7qTijafnsYRQfQHLunwx8bw1iAB6PKCqVsLsPDyPf1R5EbOS+etJLppDIoLsKFA4xsX+OMLFGjyHznyuYO8Iz78lh4KLp7CzjyO8Fbg1874uIWuRpTMh4LsXuPpek+STryp1AlDagkOuNOIzivYHvDZKucrobeHPge0+bh6fWaw8ZhYijUlzbFTdl2ZhpDlbgLv8fWrt4qFZ2I9HHvNeczEYtC9E+RJM97yePszGKLPyz8QQNGtA5YjjNi40jcHfge48gx+Q+IoWaqKstZe77YADZ9PqQNJ8fI2kQu20Z/tPMe1/ge+chRtUrkI19FXM/myPIfbEd+B6S8rO5zg36C8Dj9c45Z8woAWoYRJRtbslgLq7IMvI+I2EU7zT1K9cjQbgjgOcjQbkV1N8obhh51hLZ0xi5n7fOUNxbD/vN+LWkBiaqQTAhOQsTPWkSysCvJv09MfoHmVi/EidmrmDpFuSU7pB5hFE854mgWYseQQIfiXLcGqQD8hrkeyhRv709wETAYyfwI2T9K9sKiua6DwBA4HtfQnLe0lBBqukfqLORzxLE8z0u5fVtci/S2a3pxb8m/ed9SDMOV0bdeWEUf9rR2IqiZIBRCluMGABLEHGGVUyvtDbERNRuBNnQB2x1/awV0+egF9m8VwHP49Dc6zHgZ8hGvQM5oaiYuTbdQFQWFuYZW2p+FiMnWD3IM/Y8pndi/xV5xvYg9/EB5PkbtGD0T57bGuBKxIhPxt2H9FbAXLfP/L3KhAGfNNVi0u8lDOX1OTPfxRLkO+hCvo8Ssv4VmL4p2jhi5Ccn5QPIex8ADrhIH2wFB+BdSDOwtJQxWrC13jSmK+MqRN3iBJrb7KaK5P1fAOxy2YSkVoyDdD+SYuWK19WiZ6soSmth1tdpycP6ljBpntMFOcYhX/NVFHjG8zVTgO6gLeS4sdl0czjEDpvPz1CN3wVk9H0ktIIDsArxihqV85zMduBiRCau5iNk472ei5xEZKluMZn7gMvCKN7WpOs/g8D3ViLfjat+CSOAV8sxnKIoiqIoilIbrZCLW8Fes6u1SL7ce+tRBgqjeCci4XYmcAcp82PrZAxpBHJhnox/w1G4bZa2n3xLsSqKoiiKorQcz2r2BOaiVCz8Gng20mk2bdHyYUh+3KuBo0rFwk9LxcJ/loqFsXL/7MXt5f7Kr0rFwk+BryMpSb8CnoN8hs9JOa/pqCJdKv8P8HGgMtccsyTwvQ7gU8AfO7zMt4B7y/2VXzq8hqIoiqIoyoIi9ylAcDAF5xbsK/KUke5p9wBb6i2yCHxvOXA04lCsQyq+0zboGEE0tBMJuVymvwS+dyTwNepXGqiHjyNpT3ntx6AoiqIoitJy5FoGdBJ7EGk9H7tSiSXgA8BJwKbA976ASLfVlHYSRvF+ROruYUR2q4TowL4M0b7upbY0qypS9f00csIQAX1Zq17UyWtx343wZ+Sj07GiKIqiKMq8oSVOAAAC31sG/BNiYLtgHDE2dyBt5bcgOeiDdUqHtiOOVTtSuLwWkeJaijgvf4JIOyWtsXeanwHEERjLq7RVgsMTmcmUgbPDKH7E4TUURVEURVEWHC3jAAAEvncKcDt2FIHmooy0un4cUQ/alaIL3rzBODhnIdKorrr6gZyCnB1G8VaH11AURVEURVlwtEoKUMIjwN2IAeqaEnAKcDLSfW5v4HvfQTo8bjKdLhcii4G349b4BzkR2e/4GoqiKIqiKAuOVnMAhoGrEOP8WLKZfyew2vwcg8hSjga+twn4DlKsWzZzG0FSeDKYVtM4EbeNv2Ci5feCP3FRFEVRFEWxTUulACUYBZqbkELbPLDd/PwYqSHYh2nlnPd8/noIfG8Foph0hONLDQMXh1H8GcfXURRFURRFWXC02glAQghsQPT4m9WZdzLrzA/AIHIiUAb2BL73fcQ52JZzVZ9ZMY3TziEbp2sU+cwURVEURVEUy7TkCQBA4HttSH7+NcBK8tnVeBxJCxpFotpPAd81fw6a/zea91MCU/j7JqTwd0UGl9wDvHAB11koiqIoiqI4o2UdADjoBJwEXI70CGgVqkizr6eB5IRgd14N3sD3jkLUl1ZldMkHwyh+fUbXUhRFURRFWVC0tAMAB6PTPnAD7noEuGQM6QOwAzkdeAxxBurqSuyKwPfWA9fjvvB3MhvCKP5ohtdTFEVRFEVZMLS8AwAQ+B6ISs8liHSna4lKFySNyA4gBcSbkMZnO83/z1RhKPC9LkTxZyOS959VitU48LIwirdkdD1FURRFUZQFxbxwABIC31sEnApcDKwhn3UB9TKANMX6Lv9/e/cTYlUZxnH8m4oLMZBBHGcWFhUR4g29XlJLK6tF2aJNtSjC/ixatmoREi1qURARtnATRH8oIpEWIWJhJCZSh4N0xCYT+8NwZxhEZIjJSqYWz5kSyUy99773nvP9gAvFuefhrs5v3ud5HzhGhIM2MNmNoeLyO1wFPAY8Dizu9DMuYpLo/3cHgCRJUhdUKgDMKXvWHwUeAZYkLqeTzlAuJQOOA98TswRHr/SFudVsLCV+478J2Ei6ALULeKJf5yEkSZIG3aBeA3oxB4nB2g+JAeEWsIjBPxE4dynZXUQgmAZmWs3GMWKo+GvgG+KGoQvdLjSPCEYriN7+tcQL/zKifSrV9zRLnHTMJHq+JElS5VXyBOBc5f319xItLbcCy9NW1DMniXaa880DhujP72EK2JrlxZ7UhUiSJFVV5QPAnFazMUT8tvt+IhD04j57XZqMaP9xCZgkSVKXzE9dQK+0J6Z+HR0ZHgO+AHYD48AwMeQ6nxqFoT62D3i3PTH1R+pCJEmSqqrWL71le1CTGBhuEj3xyxn8WYFB9AuwLcuL7akLkSRJqrJaB4A55UbhFcT1l+uIWYGbgaUp66qZceCBLC/y1IVIkiRVmQHgPK1mYyFxG84QEQTuA24p/74ATwe6JQc2dGO3gSRJkv5hAPgfylDQAu4B1hADxMuJoLAwYWlV8nyWFy+lLkKSJKnqDACXqNVsLABGiXahm4DriXahG4mWIU8ILs9a238kSZK6zwBwBcrZgUXEi/8QcB2wmTgtWEUs7jIQXNxR4LYsL06nLkSSJKnqDABd0mo2lhAnA7cDG4gh41Fi025VNzBfrpeBF+z/lyRJ6j4DQA+UMwTXEScDDWK4uEmcHtTdKWAr8EmWF6lrkSRJqjwDQI+VuwdGiZmBzcAWol2org4AT2V5cSx1IZIkSXVgAEik1WxAzAfMIwLBRmAT/1w5OkS0C1XZWeB14LksL86mLkaSJKkODAB9pAwFQ8BK4oahNcC1wA3ln6oNFLeBrVlefJa6EEmSpLowAPSxsl1oKbFvYAURCFYD68t/G3QZcHeWF9OpC5EkSaoLA8CAKE8H5jYRLyROBlrAHUQoWAwsIdqGBmU52TNZXmxPXYQkSVKdGAAqoNVsLCJuGVpJ3DL0INFC1M9OA2uyvPgxdSGSJEl14n30FZDlxQxwBDjSajZ2Ab8B24hFZP1qDzEDIEmSpB6q2lBp7ZW36XwMTKau5T9MAx8CLv6SJEnqMQNABWV5cQTYn7qO//AVcNjFX5IkSb1nAKiuD1IXcAEzwKfAeOpCJEmS6sgAUF2HgL2pi/gXJ4BdLv6SJElKwwBQXdPEKcBM6kLOszvLi+Opi5AkSaorA0BFZXkxCxwglm31i2lgR+oiJEmS6swAUG0ngI+IF+/UZoE3gZ9TFyJJklRnBoAKK08BdhI7AlI7Drxd1iRJkqREDAAVl+XFJPBW4jLOEEHE3n9JkqTEDAD1sAs4nPD5Y8C75cZiSZIkJWQAqIfTwCvAqUTP35HlxViiZ0uSJOkcBoAaKPvuPwP2EMO4vXQQeK/Hz5QkSdIFGADq4yTwBr3tw28D22z9kSRJ6h/zUxeg3mhPTNGemBofHRk+A2yh++HvF+BVYGd7Ysqtv5IkSX3CE4D6eZ9oBeqmWWAv8E6WF2e6/CxJkiRdAk8AamZ0ZPgP4DtgDTACXNWFx/wAbM3y4qcufLYkSZKugAGgZspWoInRkeExYB2wrIMfPwt8Czyd5UXewc+VJElSh9gCVF+HgOeJ4eBOGQOeBQ508DMlSZLUQZ4A1FR7Ymp2dGT4GDAJbAAWX+FHTgJPAp9neeHQryRJUp/qRv+3Bkyr2VgPvAjcCSy4xB8/DewDns3y4kSHS5MkSVKHeQKguetBvwT+BK4Brv4fP3aWaPV5FXgty4vxLpYoSZKkDvEEQH9rNRuLgdXAQ8DDwPJ/+W+/E1uFPwL2Az+Wm4YlSZI0AP4C6m3sRTwy68IAAAAASUVORK5CYII=;" vertex="1" parent="1">
          <mxGeometry x="503.6" y="120" width="72.81" height="20" as="geometry" />
        </mxCell>
        <mxCell id="cYbpTIdxBDw8iZ4d2G3q-28" value="AI" style="text;html=1;align=center;verticalAlign=middle;whiteSpace=wrap;rounded=0;fontStyle=1;fontFamily=KoPub돋움체;fontSize=14;fontColor=#0066CC;" vertex="1" parent="1">
          <mxGeometry x="300" y="10" width="40" height="20" as="geometry" />
        </mxCell>
        <mxCell id="cYbpTIdxBDw8iZ4d2G3q-164" value="MoE" style="text;html=1;align=center;verticalAlign=middle;whiteSpace=wrap;rounded=0;fontStyle=1;fontFamily=KoPub돋움체;fontSize=14;fontColor=#808080;" vertex="1" parent="1">
          <mxGeometry x="300" y="-15" width="40" height="20" as="geometry" />
        </mxCell>
        <mxCell id="cYbpTIdxBDw8iZ4d2G3q-160" value="" style="rounded=1;whiteSpace=wrap;html=1;fontFamily=KoPub돋움체;fontSize=14;fontStyle=1;fontColor=#0066CC;strokeColor=#0066CC;" vertex="1" parent="1">
          <mxGeometry x="340" y="-40" width="30" height="30" as="geometry" />
        </mxCell>
        <mxCell id="cYbpTIdxBDw8iZ4d2G3q-158" value="" style="rounded=1;whiteSpace=wrap;html=1;fontFamily=KoPub돋움체;fontSize=14;fontStyle=1;fontColor=#0066CC;strokeColor=#0066CC;" vertex="1" parent="1">
          <mxGeometry x="270" y="-40" width="30" height="30" as="geometry" />
        </mxCell>
        <mxCell id="cYbpTIdxBDw8iZ4d2G3q-161" value="AI" style="text;html=1;align=center;verticalAlign=middle;whiteSpace=wrap;rounded=0;fontStyle=1;fontFamily=KoPub돋움체;fontSize=14;fontColor=#0066CC;" vertex="1" parent="1">
          <mxGeometry x="340" y="-35" width="30" height="20" as="geometry" />
        </mxCell>
        <mxCell id="cYbpTIdxBDw8iZ4d2G3q-159" value="AI" style="text;html=1;align=center;verticalAlign=middle;whiteSpace=wrap;rounded=0;fontStyle=1;fontFamily=KoPub돋움체;fontSize=14;fontColor=#0066CC;" vertex="1" parent="1">
          <mxGeometry x="270" y="-35" width="30" height="20" as="geometry" />
        </mxCell>
        <mxCell id="cYbpTIdxBDw8iZ4d2G3q-165" value="..." style="text;html=1;align=center;verticalAlign=middle;whiteSpace=wrap;rounded=0;fontStyle=1;fontFamily=KoPub돋움체;fontSize=14;fontColor=#808080;" vertex="1" parent="1">
          <mxGeometry x="290" y="160" width="70" height="10" as="geometry" />
        </mxCell>
      </root>
    </mxGraphModel>
  </diagram>
</mxfile>
